<svg width="77" height="80" viewBox="0 0 77 80" fill="none" xmlns="http://www.w3.org/2000/svg">
<path d="M1.42651 33.1805C1.42651 33.1805 11.3541 21.2981 20.2654 19.5385C27.0416 18.2005 30.976 22.8466 37.8051 21.8122C48.3794 20.2103 50.405 8.76847 60.8665 6.54618C66.6981 5.3074 75.8077 6.54615 75.8077 6.54615" stroke="#7A5FC5" stroke-width="1.29923" stroke-linecap="round"/>
<path d="M20.5899 19.4394C11.6785 21.199 1.75098 33.0813 1.75098 33.0813V50.7201H76.1322V6.44703C76.1322 6.44703 67.0226 5.20828 61.191 6.44706C50.7294 8.66935 48.7039 20.1112 38.1296 21.713C31.3005 22.7475 27.366 18.1014 20.5899 19.4394Z" fill="url(#paint0_linear_167_3431)"/>
<path d="M30.8411 5.83543C30.7978 5.83543 30.761 5.82027 30.7307 5.78996C30.7003 5.75964 30.6852 5.72283 30.6852 5.67952V4.41277H29.4379C29.3946 4.41277 29.3578 4.39761 29.3275 4.3673C29.2972 4.33698 29.282 4.30017 29.282 4.25686V3.91256C29.282 3.86492 29.2972 3.82811 29.3275 3.80213C29.3578 3.77181 29.3946 3.75665 29.4379 3.75665H30.6852V2.52238C30.6852 2.47907 30.7003 2.44226 30.7307 2.41195C30.761 2.38163 30.7978 2.36647 30.8411 2.36647H31.2179C31.2655 2.36647 31.3023 2.38163 31.3283 2.41195C31.3586 2.44226 31.3738 2.47907 31.3738 2.52238V3.75665H32.621C32.6644 3.75665 32.7012 3.77181 32.7315 3.80213C32.7618 3.82811 32.777 3.86492 32.777 3.91256V4.25686C32.777 4.30017 32.7618 4.33698 32.7315 4.3673C32.7012 4.39761 32.6644 4.41277 32.621 4.41277H31.3738V5.67952C31.3738 5.72283 31.3586 5.75964 31.3283 5.78996C31.3023 5.82027 31.2655 5.83543 31.2179 5.83543H30.8411ZM33.3278 6.0498C33.2845 6.0498 33.2477 6.03465 33.2174 6.00433C33.1871 5.97402 33.1719 5.9372 33.1719 5.8939V5.56259C33.1719 5.52361 33.1806 5.47814 33.1979 5.42617C33.2195 5.36987 33.265 5.31357 33.3343 5.25727L34.3607 4.23737C34.6465 4.01217 34.8761 3.82162 35.0493 3.66571C35.2269 3.50547 35.3546 3.36039 35.4326 3.23046C35.5149 3.09621 35.556 2.96412 35.556 2.8342C35.556 2.63931 35.5019 2.48124 35.3936 2.35998C35.2897 2.23872 35.1229 2.17808 34.8934 2.17808C34.7418 2.17808 34.6141 2.21057 34.5101 2.27553C34.4062 2.33616 34.3239 2.41844 34.2633 2.52238C34.207 2.62632 34.168 2.74109 34.1463 2.86668C34.1377 2.92298 34.1138 2.96196 34.0749 2.98361C34.0359 3.00526 33.9969 3.01609 33.9579 3.01609H33.3798C33.3408 3.01609 33.3083 3.0031 33.2823 2.97711C33.2564 2.95113 33.2434 2.92081 33.2434 2.88617C33.2477 2.69994 33.2867 2.52022 33.3603 2.34698C33.4339 2.16942 33.54 2.01351 33.6786 1.87926C33.8215 1.74068 33.9947 1.63024 34.1983 1.54796C34.4018 1.46567 34.6314 1.42453 34.8869 1.42453C35.2463 1.42453 35.543 1.48516 35.7769 1.60642C36.0151 1.72768 36.1926 1.89225 36.3096 2.10013C36.4308 2.30801 36.4914 2.54187 36.4914 2.80172C36.4914 3.00526 36.4525 3.19365 36.3745 3.36688C36.2966 3.53578 36.184 3.70035 36.0367 3.86059C35.8895 4.0165 35.7119 4.17674 35.504 4.34131L34.5816 5.27676H36.433C36.4806 5.27676 36.5174 5.29192 36.5434 5.32223C36.5737 5.34822 36.5889 5.38503 36.5889 5.43267V5.8939C36.5889 5.9372 36.5737 5.97402 36.5434 6.00433C36.5174 6.03465 36.4806 6.0498 36.433 6.0498H33.3278ZM37.6162 6.0498C37.5253 6.0498 37.4798 6.0065 37.4798 5.91988C37.4798 5.8939 37.4884 5.87008 37.5058 5.84842L40.7084 1.62591C40.7387 1.58693 40.769 1.55662 40.7993 1.53496C40.8296 1.51331 40.8729 1.50248 40.9292 1.50248H41.2735C41.3645 1.50248 41.41 1.54579 41.41 1.63241C41.41 1.65839 41.4013 1.68221 41.384 1.70386L38.1814 5.92638C38.151 5.96535 38.1207 5.99567 38.0904 6.01732C38.0644 6.03898 38.0211 6.0498 37.9605 6.0498H37.6162ZM40.7409 6.08878C40.4507 6.08878 40.2212 6.00866 40.0523 5.84842C39.8834 5.68818 39.7903 5.47814 39.7729 5.21829C39.7686 5.10569 39.7664 5.00825 39.7664 4.92597C39.7664 4.84368 39.7686 4.74191 39.7729 4.62065C39.7903 4.3608 39.879 4.15076 40.0393 3.99052C40.2038 3.83028 40.4377 3.75016 40.7409 3.75016C41.0483 3.75016 41.2822 3.83028 41.4424 3.99052C41.607 4.15076 41.6958 4.3608 41.7088 4.62065C41.7174 4.74191 41.7218 4.84368 41.7218 4.92597C41.7218 5.00825 41.7174 5.10569 41.7088 5.21829C41.6958 5.47814 41.6027 5.68818 41.4295 5.84842C41.2606 6.00866 41.031 6.08878 40.7409 6.08878ZM40.7409 5.58208C40.8361 5.58208 40.9098 5.56259 40.9617 5.52361C41.018 5.48464 41.0592 5.43483 41.0852 5.3742C41.1111 5.31357 41.1241 5.25294 41.1241 5.19231C41.1328 5.08404 41.1371 4.99309 41.1371 4.91947C41.1371 4.84152 41.1328 4.75274 41.1241 4.65313C41.1198 4.55352 41.0895 4.46257 41.0332 4.38029C40.9769 4.29367 40.8794 4.25036 40.7409 4.25036C40.6066 4.25036 40.5113 4.29367 40.455 4.38029C40.3987 4.46257 40.3662 4.55352 40.3576 4.65313C40.3533 4.75274 40.3511 4.84152 40.3511 4.91947C40.3511 4.99309 40.3533 5.08404 40.3576 5.19231C40.3662 5.25294 40.3814 5.31357 40.4031 5.3742C40.429 5.43483 40.468 5.48464 40.52 5.52361C40.5763 5.56259 40.6499 5.58208 40.7409 5.58208ZM38.1489 3.78914C37.8587 3.78914 37.6292 3.71335 37.4603 3.56177C37.2914 3.41019 37.1983 3.20448 37.181 2.94463C37.1766 2.83203 37.1745 2.73459 37.1745 2.65231C37.1745 2.56569 37.1766 2.46175 37.181 2.34049C37.1983 2.08064 37.2871 1.8706 37.4473 1.71036C37.6119 1.55012 37.8457 1.47 38.1489 1.47C38.4564 1.47 38.6902 1.55012 38.8505 1.71036C39.015 1.8706 39.1038 2.08064 39.1168 2.34049C39.1255 2.46175 39.1298 2.56569 39.1298 2.65231C39.1298 2.73459 39.1255 2.83203 39.1168 2.94463C39.1038 3.20448 39.0107 3.41019 38.8375 3.56177C38.6686 3.71335 38.439 3.78914 38.1489 3.78914ZM38.1489 3.30842C38.2442 3.30842 38.3178 3.28893 38.3698 3.24995C38.4261 3.21098 38.4672 3.16117 38.4932 3.10054C38.5192 3.03991 38.5322 2.97711 38.5322 2.91215C38.5408 2.80388 38.5452 2.71294 38.5452 2.63931C38.5452 2.56136 38.5408 2.47258 38.5322 2.37297C38.5278 2.27336 38.4975 2.18241 38.4412 2.10013C38.3849 2.01785 38.2875 1.9767 38.1489 1.9767C38.0146 1.9767 37.9194 2.01785 37.8631 2.10013C37.8068 2.18241 37.7764 2.27336 37.7721 2.37297C37.7678 2.47258 37.7656 2.56136 37.7656 2.63931C37.7656 2.71294 37.7678 2.80388 37.7721 2.91215C37.7764 2.97711 37.7894 3.03991 37.8111 3.10054C37.8371 3.16117 37.876 3.21098 37.928 3.24995C37.9843 3.28893 38.0579 3.30842 38.1489 3.30842Z" fill="#4D2AB2"/>
<path d="M34.8823 11.0927L36.1816 9.79346M36.1816 9.79346L37.4808 11.0927M36.1816 9.79346V14.3408" stroke="#4D2AB2" stroke-width="0.649617" stroke-linecap="round" stroke-linejoin="round"/>
<rect x="1.25049" y="63.7124" width="74.882" height="16" rx="2.59847" fill="#E8E8E8"/>
<path d="M10.0693 68.1704V73.7124H9.33468V68.1704H10.0693ZM12.3912 70.6635V71.2649H9.90944V70.6635H12.3912ZM12.768 68.1704V68.7718H9.90944V68.1704H12.768ZM24.4887 68.6614L22.654 73.7124H21.9042L24.0167 68.1704H24.5001L24.4887 68.6614ZM26.0264 73.7124L24.188 68.6614L24.1766 68.1704H24.66L26.7801 73.7124H26.0264ZM25.9313 71.6608V72.2622H22.8177V71.6608H25.9313ZM38.6416 72.0947V68.1704H39.3724V72.0947C39.3724 72.4601 39.2976 72.7684 39.1479 73.0196C38.9981 73.2709 38.7913 73.4625 38.5274 73.5944C38.2661 73.7238 37.9654 73.7885 37.6253 73.7885C37.2853 73.7885 36.9833 73.7302 36.7194 73.6134C36.4555 73.4967 36.2487 73.3191 36.099 73.0805C35.9493 72.842 35.8744 72.5413 35.8744 72.1784H36.609C36.609 72.4119 36.6522 72.6035 36.7384 72.7532C36.8247 72.9029 36.944 73.0133 37.0962 73.0844C37.251 73.1554 37.4274 73.1909 37.6253 73.1909C37.8182 73.1909 37.9907 73.1503 38.143 73.0691C38.2978 72.9854 38.4196 72.8623 38.5084 72.6999C38.5972 72.535 38.6416 72.3332 38.6416 72.0947ZM51.4623 68.6614L49.6277 73.7124H48.8778L50.9903 68.1704H51.4737L51.4623 68.6614ZM53.0001 73.7124L51.1616 68.6614L51.1502 68.1704H51.6336L53.7537 73.7124H53.0001ZM52.9049 71.6608V72.2622H49.7913V71.6608H52.9049ZM67.5565 70.7663V71.1165C67.5565 71.5326 67.5045 71.9057 67.4004 72.2355C67.2964 72.5654 67.1467 72.8458 66.9513 73.0767C66.7559 73.3077 66.5212 73.484 66.2471 73.6058C65.9756 73.7276 65.6711 73.7885 65.3336 73.7885C65.0062 73.7885 64.7055 73.7276 64.4315 73.6058C64.16 73.484 63.924 73.3077 63.7235 73.0767C63.5256 72.8458 63.372 72.5654 63.2629 72.2355C63.1538 71.9057 63.0993 71.5326 63.0993 71.1165V70.7663C63.0993 70.3501 63.1525 69.9784 63.2591 69.651C63.3682 69.3211 63.5218 69.0407 63.7197 68.8098C63.9176 68.5764 64.1523 68.3987 64.4239 68.2769C64.6979 68.1551 64.9986 68.0942 65.326 68.0942C65.6635 68.0942 65.968 68.1551 66.2395 68.2769C66.5136 68.3987 66.7483 68.5764 66.9437 68.8098C67.1416 69.0407 67.2926 69.3211 67.3966 69.651C67.5032 69.9784 67.5565 70.3501 67.5565 70.7663ZM66.8295 71.1165V70.7587C66.8295 70.4288 66.7952 70.137 66.7267 69.8832C66.6607 69.6295 66.563 69.4163 66.4336 69.2437C66.3042 69.0712 66.1456 68.9405 65.9578 68.8517C65.7726 68.7629 65.562 68.7185 65.326 68.7185C65.0976 68.7185 64.8908 68.7629 64.7055 68.8517C64.5228 68.9405 64.3655 69.0712 64.2335 69.2437C64.1041 69.4163 64.0039 69.6295 63.9328 69.8832C63.8618 70.137 63.8263 70.4288 63.8263 70.7587V71.1165C63.8263 71.4489 63.8618 71.7432 63.9328 71.9995C64.0039 72.2533 64.1054 72.4677 64.2374 72.6428C64.3718 72.8154 64.5304 72.9461 64.7131 73.0349C64.8984 73.1237 65.1052 73.1681 65.3336 73.1681C65.5721 73.1681 65.784 73.1237 65.9692 73.0349C66.1545 72.9461 66.3105 72.8154 66.4374 72.6428C66.5668 72.4677 66.6645 72.2533 66.7305 71.9995C66.7965 71.7432 66.8295 71.4489 66.8295 71.1165Z" fill="#303030"/>
<defs>
<linearGradient id="paint0_linear_167_3431" x1="39.104" y1="-10.344" x2="53.3956" y2="28.3083" gradientUnits="userSpaceOnUse">
<stop stop-color="#4D2AB2"/>
<stop offset="1" stop-color="white" stop-opacity="0"/>
</linearGradient>
</defs>
</svg>
