<svg width="77" height="80" viewBox="0 0 77 80" fill="none" xmlns="http://www.w3.org/2000/svg">
<path d="M1.63416 33.1805C1.63416 33.1805 11.5617 21.2981 20.4731 19.5385C27.2492 18.2005 31.1837 22.8466 38.0127 21.8122C48.5871 20.2103 50.6126 8.76847 61.0742 6.54618C66.9058 5.3074 76.0154 6.54615 76.0154 6.54615" stroke="#5CC09F" stroke-width="1.29923" stroke-linecap="round"/>
<path d="M20.7979 19.4394C11.8865 21.199 1.95898 33.0813 1.95898 33.0813V50.7201H76.3402V6.44703C76.3402 6.44703 67.2306 5.20828 61.399 6.44706C50.9374 8.66935 48.9119 20.1112 38.3376 21.713C31.5085 22.7475 27.574 18.1014 20.7979 19.4394Z" fill="url(#paint0_linear_167_3486)"/>
<path d="M31.0489 5.83543C31.0055 5.83543 30.9687 5.82027 30.9384 5.78996C30.9081 5.75964 30.8929 5.72283 30.8929 5.67952V4.41277H29.6457C29.6024 4.41277 29.5656 4.39761 29.5352 4.3673C29.5049 4.33698 29.4898 4.30017 29.4898 4.25686V3.91256C29.4898 3.86492 29.5049 3.82811 29.5352 3.80213C29.5656 3.77181 29.6024 3.75665 29.6457 3.75665H30.8929V2.52238C30.8929 2.47907 30.9081 2.44226 30.9384 2.41195C30.9687 2.38163 31.0055 2.36647 31.0489 2.36647H31.4256C31.4733 2.36647 31.5101 2.38163 31.5361 2.41195C31.5664 2.44226 31.5815 2.47907 31.5815 2.52238V3.75665H32.8288C32.8721 3.75665 32.9089 3.77181 32.9392 3.80213C32.9696 3.82811 32.9847 3.86492 32.9847 3.91256V4.25686C32.9847 4.30017 32.9696 4.33698 32.9392 4.3673C32.9089 4.39761 32.8721 4.41277 32.8288 4.41277H31.5815V5.67952C31.5815 5.72283 31.5664 5.75964 31.5361 5.78996C31.5101 5.82027 31.4733 5.83543 31.4256 5.83543H31.0489ZM33.5356 6.0498C33.4923 6.0498 33.4555 6.03465 33.4251 6.00433C33.3948 5.97402 33.3797 5.9372 33.3797 5.8939V5.56259C33.3797 5.52361 33.3883 5.47814 33.4056 5.42617C33.4273 5.36987 33.4728 5.31357 33.5421 5.25727L34.5685 4.23737C34.8543 4.01217 35.0838 3.82162 35.2571 3.66571C35.4346 3.50547 35.5624 3.36039 35.6403 3.23046C35.7226 3.09621 35.7638 2.96412 35.7638 2.8342C35.7638 2.63931 35.7096 2.48124 35.6014 2.35998C35.4974 2.23872 35.3307 2.17808 35.1012 2.17808C34.9496 2.17808 34.8218 2.21057 34.7179 2.27553C34.6139 2.33616 34.5317 2.41844 34.471 2.52238C34.4147 2.62632 34.3757 2.74109 34.3541 2.86668C34.3454 2.92298 34.3216 2.96196 34.2826 2.98361C34.2437 3.00526 34.2047 3.01609 34.1657 3.01609H33.5875C33.5486 3.01609 33.5161 3.0031 33.4901 2.97711C33.4641 2.95113 33.4511 2.92081 33.4511 2.88617C33.4555 2.69994 33.4944 2.52022 33.5681 2.34698C33.6417 2.16942 33.7478 2.01351 33.8864 1.87926C34.0293 1.74068 34.2025 1.63024 34.4061 1.54796C34.6096 1.46567 34.8391 1.42453 35.0947 1.42453C35.4541 1.42453 35.7508 1.48516 35.9846 1.60642C36.2228 1.72768 36.4004 1.89225 36.5173 2.10013C36.6386 2.30801 36.6992 2.54187 36.6992 2.80172C36.6992 3.00526 36.6602 3.19365 36.5823 3.36688C36.5043 3.53578 36.3917 3.70035 36.2445 3.86059C36.0972 4.0165 35.9197 4.17674 35.7118 4.34131L34.7893 5.27676H36.6407C36.6884 5.27676 36.7252 5.29192 36.7512 5.32223C36.7815 5.34822 36.7967 5.38503 36.7967 5.43267V5.8939C36.7967 5.9372 36.7815 5.97402 36.7512 6.00433C36.7252 6.03465 36.6884 6.0498 36.6407 6.0498H33.5356ZM37.824 6.0498C37.733 6.0498 37.6875 6.0065 37.6875 5.91988C37.6875 5.8939 37.6962 5.87008 37.7135 5.84842L40.9161 1.62591C40.9465 1.58693 40.9768 1.55662 41.0071 1.53496C41.0374 1.51331 41.0807 1.50248 41.137 1.50248H41.4813C41.5723 1.50248 41.6177 1.54579 41.6177 1.63241C41.6177 1.65839 41.6091 1.68221 41.5917 1.70386L38.3891 5.92638C38.3588 5.96535 38.3285 5.99567 38.2982 6.01732C38.2722 6.03898 38.2289 6.0498 38.1683 6.0498H37.824ZM40.9486 6.08878C40.6585 6.08878 40.4289 6.00866 40.26 5.84842C40.0911 5.68818 39.998 5.47814 39.9807 5.21829C39.9764 5.10569 39.9742 5.00825 39.9742 4.92597C39.9742 4.84368 39.9764 4.74191 39.9807 4.62065C39.998 4.3608 40.0868 4.15076 40.247 3.99052C40.4116 3.83028 40.6455 3.75016 40.9486 3.75016C41.2561 3.75016 41.49 3.83028 41.6502 3.99052C41.8148 4.15076 41.9036 4.3608 41.9166 4.62065C41.9252 4.74191 41.9295 4.84368 41.9295 4.92597C41.9295 5.00825 41.9252 5.10569 41.9166 5.21829C41.9036 5.47814 41.8104 5.68818 41.6372 5.84842C41.4683 6.00866 41.2388 6.08878 40.9486 6.08878ZM40.9486 5.58208C41.0439 5.58208 41.1175 5.56259 41.1695 5.52361C41.2258 5.48464 41.2669 5.43483 41.2929 5.3742C41.3189 5.31357 41.3319 5.25294 41.3319 5.19231C41.3406 5.08404 41.3449 4.99309 41.3449 4.91947C41.3449 4.84152 41.3406 4.75274 41.3319 4.65313C41.3276 4.55352 41.2972 4.46257 41.2409 4.38029C41.1846 4.29367 41.0872 4.25036 40.9486 4.25036C40.8144 4.25036 40.7191 4.29367 40.6628 4.38029C40.6065 4.46257 40.574 4.55352 40.5653 4.65313C40.561 4.75274 40.5589 4.84152 40.5589 4.91947C40.5589 4.99309 40.561 5.08404 40.5653 5.19231C40.574 5.25294 40.5892 5.31357 40.6108 5.3742C40.6368 5.43483 40.6758 5.48464 40.7278 5.52361C40.7841 5.56259 40.8577 5.58208 40.9486 5.58208ZM38.3566 3.78914C38.0665 3.78914 37.837 3.71335 37.6681 3.56177C37.4992 3.41019 37.406 3.20448 37.3887 2.94463C37.3844 2.83203 37.3822 2.73459 37.3822 2.65231C37.3822 2.56569 37.3844 2.46175 37.3887 2.34049C37.406 2.08064 37.4948 1.8706 37.6551 1.71036C37.8196 1.55012 38.0535 1.47 38.3566 1.47C38.6641 1.47 38.898 1.55012 39.0582 1.71036C39.2228 1.8706 39.3116 2.08064 39.3246 2.34049C39.3332 2.46175 39.3376 2.56569 39.3376 2.65231C39.3376 2.73459 39.3332 2.83203 39.3246 2.94463C39.3116 3.20448 39.2185 3.41019 39.0452 3.56177C38.8763 3.71335 38.6468 3.78914 38.3566 3.78914ZM38.3566 3.30842C38.4519 3.30842 38.5255 3.28893 38.5775 3.24995C38.6338 3.21098 38.675 3.16117 38.7009 3.10054C38.7269 3.03991 38.7399 2.97711 38.7399 2.91215C38.7486 2.80388 38.7529 2.71294 38.7529 2.63931C38.7529 2.56136 38.7486 2.47258 38.7399 2.37297C38.7356 2.27336 38.7053 2.18241 38.649 2.10013C38.5927 2.01785 38.4952 1.9767 38.3566 1.9767C38.2224 1.9767 38.1271 2.01785 38.0708 2.10013C38.0145 2.18241 37.9842 2.27336 37.9799 2.37297C37.9755 2.47258 37.9734 2.56136 37.9734 2.63931C37.9734 2.71294 37.9755 2.80388 37.9799 2.91215C37.9842 2.97711 37.9972 3.03991 38.0188 3.10054C38.0448 3.16117 38.0838 3.21098 38.1358 3.24995C38.1921 3.28893 38.2657 3.30842 38.3566 3.30842Z" fill="#5CC09F"/>
<path d="M35.09 11.0927L36.3892 9.79346M36.3892 9.79346L37.6884 11.0927M36.3892 9.79346V14.3408" stroke="#5CC09F" stroke-width="0.649617" stroke-linecap="round" stroke-linejoin="round"/>
<rect x="1.45825" y="63.7124" width="74.882" height="16" rx="2.59847" fill="#E8E8E8"/>
<path d="M10.2772 68.1704V73.7124H9.54257V68.1704H10.2772ZM12.5991 70.6635V71.2649H10.1173V70.6635H12.5991ZM12.9759 68.1704V68.7718H10.1173V68.1704H12.9759ZM24.6966 68.6614L22.8619 73.7124H22.1121L24.2246 68.1704H24.708L24.6966 68.6614ZM26.2343 73.7124L24.3959 68.6614L24.3844 68.1704H24.8679L26.988 73.7124H26.2343ZM26.1392 71.6608V72.2622H23.0256V71.6608H26.1392ZM38.8495 72.0947V68.1704H39.5803V72.0947C39.5803 72.4601 39.5055 72.7684 39.3557 73.0196C39.206 73.2709 38.9992 73.4625 38.7353 73.5944C38.4739 73.7238 38.1732 73.7885 37.8332 73.7885C37.4932 73.7885 37.1912 73.7302 36.9273 73.6134C36.6634 73.4967 36.4566 73.3191 36.3069 73.0805C36.1571 72.842 36.0823 72.5413 36.0823 72.1784H36.8169C36.8169 72.4119 36.86 72.6035 36.9463 72.7532C37.0326 72.9029 37.1519 73.0133 37.3041 73.0844C37.4589 73.1554 37.6353 73.1909 37.8332 73.1909C38.0261 73.1909 38.1986 73.1503 38.3509 73.0691C38.5057 72.9854 38.6275 72.8623 38.7163 72.6999C38.8051 72.535 38.8495 72.3332 38.8495 72.0947ZM51.6702 68.6614L49.8355 73.7124H49.0857L51.1982 68.1704H51.6816L51.6702 68.6614ZM53.208 73.7124L51.3695 68.6614L51.3581 68.1704H51.8415L53.9616 73.7124H53.208ZM53.1128 71.6608V72.2622H49.9992V71.6608H53.1128ZM67.7644 70.7663V71.1165C67.7644 71.5326 67.7124 71.9057 67.6083 72.2355C67.5043 72.5654 67.3546 72.8458 67.1592 73.0767C66.9638 73.3077 66.729 73.484 66.455 73.6058C66.1835 73.7276 65.879 73.7885 65.5415 73.7885C65.2141 73.7885 64.9134 73.7276 64.6394 73.6058C64.3678 73.484 64.1318 73.3077 63.9314 73.0767C63.7335 72.8458 63.5799 72.5654 63.4708 72.2355C63.3617 71.9057 63.3071 71.5326 63.3071 71.1165V70.7663C63.3071 70.3501 63.3604 69.9784 63.467 69.651C63.5761 69.3211 63.7296 69.0407 63.9276 68.8098C64.1255 68.5764 64.3602 68.3987 64.6317 68.2769C64.9058 68.1551 65.2065 68.0942 65.5339 68.0942C65.8714 68.0942 66.1759 68.1551 66.4474 68.2769C66.7214 68.3987 66.9562 68.5764 67.1516 68.8098C67.3495 69.0407 67.5005 69.3211 67.6045 69.651C67.7111 69.9784 67.7644 70.3501 67.7644 70.7663ZM67.0374 71.1165V70.7587C67.0374 70.4288 67.0031 70.137 66.9346 69.8832C66.8686 69.6295 66.7709 69.4163 66.6415 69.2437C66.5121 69.0712 66.3535 68.9405 66.1657 68.8517C65.9805 68.7629 65.7698 68.7185 65.5339 68.7185C65.3055 68.7185 65.0987 68.7629 64.9134 68.8517C64.7307 68.9405 64.5734 69.0712 64.4414 69.2437C64.312 69.4163 64.2118 69.6295 64.1407 69.8832C64.0697 70.137 64.0342 70.4288 64.0342 70.7587V71.1165C64.0342 71.4489 64.0697 71.7432 64.1407 71.9995C64.2118 72.2533 64.3133 72.4677 64.4452 72.6428C64.5797 72.8154 64.7383 72.9461 64.921 73.0349C65.1063 73.1237 65.3131 73.1681 65.5415 73.1681C65.78 73.1681 65.9919 73.1237 66.1771 73.0349C66.3624 72.9461 66.5184 72.8154 66.6453 72.6428C66.7747 72.4677 66.8724 72.2533 66.9384 71.9995C67.0044 71.7432 67.0374 71.4489 67.0374 71.1165Z" fill="#303030"/>
<defs>
<linearGradient id="paint0_linear_167_3486" x1="39.312" y1="-10.344" x2="53.6036" y2="28.3083" gradientUnits="userSpaceOnUse">
<stop stop-color="#5CC09F"/>
<stop offset="1" stop-color="white" stop-opacity="0"/>
</linearGradient>
</defs>
</svg>
