<svg width="77" height="80" viewBox="0 0 77 80" fill="none" xmlns="http://www.w3.org/2000/svg">
<path d="M1.01758 33.1805C1.01758 33.1805 10.9451 21.2981 19.8565 19.5385C26.6326 18.2005 30.5671 22.8466 37.3962 21.8122C47.9705 20.2103 49.996 8.76847 60.4576 6.54618C66.2892 5.3074 75.3988 6.54615 75.3988 6.54615" stroke="#61C2D9" stroke-width="1.29923" stroke-linecap="round"/>
<path d="M20.1812 19.4394C11.2698 21.199 1.34229 33.0813 1.34229 33.0813V50.7201H75.7235V6.44703C75.7235 6.44703 66.6139 5.20828 60.7823 6.44706C50.3207 8.66935 48.2952 20.1112 37.7209 21.713C30.8918 22.7475 26.9573 18.1014 20.1812 19.4394Z" fill="url(#paint0_linear_167_3560)"/>
<path d="M30.4322 5.83543C30.3888 5.83543 30.352 5.82027 30.3217 5.78996C30.2914 5.75964 30.2762 5.72283 30.2762 5.67952V4.41277H29.029C28.9857 4.41277 28.9489 4.39761 28.9185 4.3673C28.8882 4.33698 28.8731 4.30017 28.8731 4.25686V3.91256C28.8731 3.86492 28.8882 3.82811 28.9185 3.80213C28.9489 3.77181 28.9857 3.75665 29.029 3.75665H30.2762V2.52238C30.2762 2.47907 30.2914 2.44226 30.3217 2.41195C30.352 2.38163 30.3888 2.36647 30.4322 2.36647H30.8089C30.8566 2.36647 30.8934 2.38163 30.9194 2.41195C30.9497 2.44226 30.9648 2.47907 30.9648 2.52238V3.75665H32.2121C32.2554 3.75665 32.2922 3.77181 32.3225 3.80213C32.3529 3.82811 32.368 3.86492 32.368 3.91256V4.25686C32.368 4.30017 32.3529 4.33698 32.3225 4.3673C32.2922 4.39761 32.2554 4.41277 32.2121 4.41277H30.9648V5.67952C30.9648 5.72283 30.9497 5.75964 30.9194 5.78996C30.8934 5.82027 30.8566 5.83543 30.8089 5.83543H30.4322ZM32.9189 6.0498C32.8756 6.0498 32.8388 6.03465 32.8084 6.00433C32.7781 5.97402 32.763 5.9372 32.763 5.8939V5.56259C32.763 5.52361 32.7716 5.47814 32.7889 5.42617C32.8106 5.36987 32.8561 5.31357 32.9254 5.25727L33.9518 4.23737C34.2376 4.01217 34.4671 3.82162 34.6404 3.66571C34.8179 3.50547 34.9457 3.36039 35.0236 3.23046C35.1059 3.09621 35.1471 2.96412 35.1471 2.8342C35.1471 2.63931 35.0929 2.48124 34.9847 2.35998C34.8807 2.23872 34.714 2.17808 34.4845 2.17808C34.3329 2.17808 34.2051 2.21057 34.1012 2.27553C33.9972 2.33616 33.915 2.41844 33.8543 2.52238C33.798 2.62632 33.759 2.74109 33.7374 2.86668C33.7287 2.92298 33.7049 2.96196 33.6659 2.98361C33.627 3.00526 33.588 3.01609 33.549 3.01609H32.9708C32.9319 3.01609 32.8994 3.0031 32.8734 2.97711C32.8474 2.95113 32.8344 2.92081 32.8344 2.88617C32.8388 2.69994 32.8777 2.52022 32.9514 2.34698C33.025 2.16942 33.1311 2.01351 33.2697 1.87926C33.4126 1.74068 33.5858 1.63024 33.7894 1.54796C33.9929 1.46567 34.2224 1.42453 34.478 1.42453C34.8374 1.42453 35.1341 1.48516 35.3679 1.60642C35.6061 1.72768 35.7837 1.89225 35.9006 2.10013C36.0219 2.30801 36.0825 2.54187 36.0825 2.80172C36.0825 3.00526 36.0435 3.19365 35.9656 3.36688C35.8876 3.53578 35.775 3.70035 35.6278 3.86059C35.4805 4.0165 35.303 4.17674 35.0951 4.34131L34.1726 5.27676H36.024C36.0717 5.27676 36.1085 5.29192 36.1345 5.32223C36.1648 5.34822 36.18 5.38503 36.18 5.43267V5.8939C36.18 5.9372 36.1648 5.97402 36.1345 6.00433C36.1085 6.03465 36.0717 6.0498 36.024 6.0498H32.9189ZM37.2073 6.0498C37.1163 6.0498 37.0708 6.0065 37.0708 5.91988C37.0708 5.8939 37.0795 5.87008 37.0968 5.84842L40.2994 1.62591C40.3298 1.58693 40.3601 1.55662 40.3904 1.53496C40.4207 1.51331 40.464 1.50248 40.5203 1.50248H40.8646C40.9556 1.50248 41.001 1.54579 41.001 1.63241C41.001 1.65839 40.9924 1.68221 40.975 1.70386L37.7724 5.92638C37.7421 5.96535 37.7118 5.99567 37.6815 6.01732C37.6555 6.03898 37.6122 6.0498 37.5516 6.0498H37.2073ZM40.3319 6.08878C40.0418 6.08878 39.8122 6.00866 39.6433 5.84842C39.4744 5.68818 39.3813 5.47814 39.364 5.21829C39.3597 5.10569 39.3575 5.00825 39.3575 4.92597C39.3575 4.84368 39.3597 4.74191 39.364 4.62065C39.3813 4.3608 39.4701 4.15076 39.6303 3.99052C39.7949 3.83028 40.0288 3.75016 40.3319 3.75016C40.6394 3.75016 40.8733 3.83028 41.0335 3.99052C41.1981 4.15076 41.2869 4.3608 41.2999 4.62065C41.3085 4.74191 41.3128 4.84368 41.3128 4.92597C41.3128 5.00825 41.3085 5.10569 41.2999 5.21829C41.2869 5.47814 41.1937 5.68818 41.0205 5.84842C40.8516 6.00866 40.6221 6.08878 40.3319 6.08878ZM40.3319 5.58208C40.4272 5.58208 40.5008 5.56259 40.5528 5.52361C40.6091 5.48464 40.6502 5.43483 40.6762 5.3742C40.7022 5.31357 40.7152 5.25294 40.7152 5.19231C40.7239 5.08404 40.7282 4.99309 40.7282 4.91947C40.7282 4.84152 40.7239 4.75274 40.7152 4.65313C40.7109 4.55352 40.6806 4.46257 40.6242 4.38029C40.5679 4.29367 40.4705 4.25036 40.3319 4.25036C40.1977 4.25036 40.1024 4.29367 40.0461 4.38029C39.9898 4.46257 39.9573 4.55352 39.9486 4.65313C39.9443 4.75274 39.9422 4.84152 39.9422 4.91947C39.9422 4.99309 39.9443 5.08404 39.9486 5.19231C39.9573 5.25294 39.9725 5.31357 39.9941 5.3742C40.0201 5.43483 40.0591 5.48464 40.1111 5.52361C40.1674 5.56259 40.241 5.58208 40.3319 5.58208ZM37.7399 3.78914C37.4498 3.78914 37.2203 3.71335 37.0514 3.56177C36.8825 3.41019 36.7893 3.20448 36.772 2.94463C36.7677 2.83203 36.7655 2.73459 36.7655 2.65231C36.7655 2.56569 36.7677 2.46175 36.772 2.34049C36.7893 2.08064 36.8781 1.8706 37.0384 1.71036C37.2029 1.55012 37.4368 1.47 37.7399 1.47C38.0474 1.47 38.2813 1.55012 38.4415 1.71036C38.6061 1.8706 38.6949 2.08064 38.7079 2.34049C38.7165 2.46175 38.7209 2.56569 38.7209 2.65231C38.7209 2.73459 38.7165 2.83203 38.7079 2.94463C38.6949 3.20448 38.6018 3.41019 38.4285 3.56177C38.2596 3.71335 38.0301 3.78914 37.7399 3.78914ZM37.7399 3.30842C37.8352 3.30842 37.9088 3.28893 37.9608 3.24995C38.0171 3.21098 38.0583 3.16117 38.0842 3.10054C38.1102 3.03991 38.1232 2.97711 38.1232 2.91215C38.1319 2.80388 38.1362 2.71294 38.1362 2.63931C38.1362 2.56136 38.1319 2.47258 38.1232 2.37297C38.1189 2.27336 38.0886 2.18241 38.0323 2.10013C37.976 2.01785 37.8785 1.9767 37.7399 1.9767C37.6057 1.9767 37.5104 2.01785 37.4541 2.10013C37.3978 2.18241 37.3675 2.27336 37.3632 2.37297C37.3588 2.47258 37.3567 2.56136 37.3567 2.63931C37.3567 2.71294 37.3588 2.80388 37.3632 2.91215C37.3675 2.97711 37.3805 3.03991 37.4021 3.10054C37.4281 3.16117 37.4671 3.21098 37.5191 3.24995C37.5754 3.28893 37.649 3.30842 37.7399 3.30842Z" fill="#61C2D9"/>
<path d="M34.4733 11.0927L35.7725 9.79346M35.7725 9.79346L37.0717 11.0927M35.7725 9.79346V14.3408" stroke="#61C2D9" stroke-width="0.649617" stroke-linecap="round" stroke-linejoin="round"/>
<rect x="0.841553" y="63.7124" width="74.882" height="16" rx="2.59847" fill="#E8E8E8"/>
<path d="M9.66049 68.1704V73.7124H8.92587V68.1704H9.66049ZM11.9824 70.6635V71.2649H9.50063V70.6635H11.9824ZM12.3592 68.1704V68.7718H9.50063V68.1704H12.3592ZM24.0799 68.6614L22.2452 73.7124H21.4954L23.6079 68.1704H24.0913L24.0799 68.6614ZM25.6176 73.7124L23.7792 68.6614L23.7677 68.1704H24.2512L26.3713 73.7124H25.6176ZM25.5225 71.6608V72.2622H22.4089V71.6608H25.5225ZM38.2328 72.0947V68.1704H38.9636V72.0947C38.9636 72.4601 38.8888 72.7684 38.739 73.0196C38.5893 73.2709 38.3825 73.4625 38.1186 73.5944C37.8572 73.7238 37.5565 73.7885 37.2165 73.7885C36.8765 73.7885 36.5745 73.7302 36.3106 73.6134C36.0467 73.4967 35.8399 73.3191 35.6902 73.0805C35.5404 72.842 35.4656 72.5413 35.4656 72.1784H36.2002C36.2002 72.4119 36.2433 72.6035 36.3296 72.7532C36.4159 72.9029 36.5352 73.0133 36.6874 73.0844C36.8422 73.1554 37.0186 73.1909 37.2165 73.1909C37.4094 73.1909 37.5819 73.1503 37.7342 73.0691C37.889 72.9854 38.0108 72.8623 38.0996 72.6999C38.1884 72.535 38.2328 72.3332 38.2328 72.0947ZM51.0535 68.6614L49.2188 73.7124H48.469L50.5815 68.1704H51.0649L51.0535 68.6614ZM52.5913 73.7124L50.7528 68.6614L50.7414 68.1704H51.2248L53.3449 73.7124H52.5913ZM52.4961 71.6608V72.2622H49.3825V71.6608H52.4961ZM67.1477 70.7663V71.1165C67.1477 71.5326 67.0957 71.9057 66.9916 72.2355C66.8876 72.5654 66.7379 72.8458 66.5425 73.0767C66.3471 73.3077 66.1124 73.484 65.8383 73.6058C65.5668 73.7276 65.2623 73.7885 64.9248 73.7885C64.5974 73.7885 64.2967 73.7276 64.0227 73.6058C63.7511 73.484 63.5151 73.3077 63.3147 73.0767C63.1168 72.8458 62.9632 72.5654 62.8541 72.2355C62.745 71.9057 62.6904 71.5326 62.6904 71.1165V70.7663C62.6904 70.3501 62.7437 69.9784 62.8503 69.651C62.9594 69.3211 63.1129 69.0407 63.3109 68.8098C63.5088 68.5764 63.7435 68.3987 64.0151 68.2769C64.2891 68.1551 64.5898 68.0942 64.9172 68.0942C65.2547 68.0942 65.5592 68.1551 65.8307 68.2769C66.1047 68.3987 66.3395 68.5764 66.5349 68.8098C66.7328 69.0407 66.8838 69.3211 66.9878 69.651C67.0944 69.9784 67.1477 70.3501 67.1477 70.7663ZM66.4207 71.1165V70.7587C66.4207 70.4288 66.3864 70.137 66.3179 69.8832C66.2519 69.6295 66.1542 69.4163 66.0248 69.2437C65.8954 69.0712 65.7368 68.9405 65.549 68.8517C65.3638 68.7629 65.1531 68.7185 64.9172 68.7185C64.6888 68.7185 64.482 68.7629 64.2967 68.8517C64.114 68.9405 63.9567 69.0712 63.8247 69.2437C63.6953 69.4163 63.5951 69.6295 63.524 69.8832C63.453 70.137 63.4175 70.4288 63.4175 70.7587V71.1165C63.4175 71.4489 63.453 71.7432 63.524 71.9995C63.5951 72.2533 63.6966 72.4677 63.8285 72.6428C63.963 72.8154 64.1216 72.9461 64.3043 73.0349C64.4896 73.1237 64.6964 73.1681 64.9248 73.1681C65.1633 73.1681 65.3752 73.1237 65.5604 73.0349C65.7457 72.9461 65.9017 72.8154 66.0286 72.6428C66.158 72.4677 66.2557 72.2533 66.3217 71.9995C66.3877 71.7432 66.4207 71.4489 66.4207 71.1165Z" fill="#303030"/>
<defs>
<linearGradient id="paint0_linear_167_3560" x1="38.6953" y1="-10.344" x2="52.9869" y2="28.3083" gradientUnits="userSpaceOnUse">
<stop stop-color="#61C2D9"/>
<stop offset="1" stop-color="white" stop-opacity="0"/>
</linearGradient>
</defs>
</svg>
