<svg width="77" height="80" viewBox="0 0 77 80" fill="none" xmlns="http://www.w3.org/2000/svg">
<path d="M1.40088 33.1805C1.40088 33.1805 11.3284 21.2981 20.2398 19.5385C27.0159 18.2005 30.9504 22.8466 37.7795 21.8122C48.3538 20.2103 50.3793 8.76847 60.8409 6.54618C66.6725 5.3074 75.7821 6.54615 75.7821 6.54615" stroke="#FF5151" stroke-width="1.29923" stroke-linecap="round"/>
<path d="M20.5646 19.4394C11.6532 21.199 1.72571 33.0813 1.72571 33.0813V50.7201H76.1069V6.44703C76.1069 6.44703 66.9973 5.20828 61.1657 6.44706C50.7042 8.66935 48.6786 20.1112 38.1043 21.713C31.2752 22.7475 27.3408 18.1014 20.5646 19.4394Z" fill="url(#paint0_linear_167_3625)"/>
<path d="M30.8155 5.83543C30.7722 5.83543 30.7353 5.82027 30.705 5.78996C30.6747 5.75964 30.6595 5.72283 30.6595 5.67952V4.41277H29.4123C29.369 4.41277 29.3322 4.39761 29.3018 4.3673C29.2715 4.33698 29.2564 4.30017 29.2564 4.25686V3.91256C29.2564 3.86492 29.2715 3.82811 29.3018 3.80213C29.3322 3.77181 29.369 3.75665 29.4123 3.75665H30.6595V2.52238C30.6595 2.47907 30.6747 2.44226 30.705 2.41195C30.7353 2.38163 30.7722 2.36647 30.8155 2.36647H31.1922C31.2399 2.36647 31.2767 2.38163 31.3027 2.41195C31.333 2.44226 31.3481 2.47907 31.3481 2.52238V3.75665H32.5954C32.6387 3.75665 32.6755 3.77181 32.7058 3.80213C32.7362 3.82811 32.7513 3.86492 32.7513 3.91256V4.25686C32.7513 4.30017 32.7362 4.33698 32.7058 4.3673C32.6755 4.39761 32.6387 4.41277 32.5954 4.41277H31.3481V5.67952C31.3481 5.72283 31.333 5.75964 31.3027 5.78996C31.2767 5.82027 31.2399 5.83543 31.1922 5.83543H30.8155ZM33.3022 6.0498C33.2589 6.0498 33.2221 6.03465 33.1917 6.00433C33.1614 5.97402 33.1463 5.9372 33.1463 5.8939V5.56259C33.1463 5.52361 33.1549 5.47814 33.1722 5.42617C33.1939 5.36987 33.2394 5.31357 33.3087 5.25727L34.3351 4.23737C34.6209 4.01217 34.8504 3.82162 35.0237 3.66571C35.2012 3.50547 35.329 3.36039 35.4069 3.23046C35.4892 3.09621 35.5304 2.96412 35.5304 2.8342C35.5304 2.63931 35.4762 2.48124 35.368 2.35998C35.264 2.23872 35.0973 2.17808 34.8678 2.17808C34.7162 2.17808 34.5884 2.21057 34.4845 2.27553C34.3805 2.33616 34.2983 2.41844 34.2376 2.52238C34.1813 2.62632 34.1423 2.74109 34.1207 2.86668C34.112 2.92298 34.0882 2.96196 34.0492 2.98361C34.0103 3.00526 33.9713 3.01609 33.9323 3.01609H33.3541C33.3152 3.01609 33.2827 3.0031 33.2567 2.97711C33.2307 2.95113 33.2177 2.92081 33.2177 2.88617C33.2221 2.69994 33.261 2.52022 33.3347 2.34698C33.4083 2.16942 33.5144 2.01351 33.653 1.87926C33.7959 1.74068 33.9691 1.63024 34.1727 1.54796C34.3762 1.46567 34.6057 1.42453 34.8613 1.42453C35.2207 1.42453 35.5174 1.48516 35.7512 1.60642C35.9894 1.72768 36.167 1.89225 36.2839 2.10013C36.4052 2.30801 36.4658 2.54187 36.4658 2.80172C36.4658 3.00526 36.4268 3.19365 36.3489 3.36688C36.2709 3.53578 36.1583 3.70035 36.0111 3.86059C35.8638 4.0165 35.6863 4.17674 35.4784 4.34131L34.5559 5.27676H36.4073C36.455 5.27676 36.4918 5.29192 36.5178 5.32223C36.5481 5.34822 36.5633 5.38503 36.5633 5.43267V5.8939C36.5633 5.9372 36.5481 5.97402 36.5178 6.00433C36.4918 6.03465 36.455 6.0498 36.4073 6.0498H33.3022ZM37.5906 6.0498C37.4996 6.0498 37.4541 6.0065 37.4541 5.91988C37.4541 5.8939 37.4628 5.87008 37.4801 5.84842L40.6827 1.62591C40.7131 1.58693 40.7434 1.55662 40.7737 1.53496C40.804 1.51331 40.8473 1.50248 40.9036 1.50248H41.2479C41.3389 1.50248 41.3843 1.54579 41.3843 1.63241C41.3843 1.65839 41.3757 1.68221 41.3583 1.70386L38.1557 5.92638C38.1254 5.96535 38.0951 5.99567 38.0648 6.01732C38.0388 6.03898 37.9955 6.0498 37.9349 6.0498H37.5906ZM40.7152 6.08878C40.4251 6.08878 40.1955 6.00866 40.0266 5.84842C39.8577 5.68818 39.7646 5.47814 39.7473 5.21829C39.743 5.10569 39.7408 5.00825 39.7408 4.92597C39.7408 4.84368 39.743 4.74191 39.7473 4.62065C39.7646 4.3608 39.8534 4.15076 40.0136 3.99052C40.1782 3.83028 40.4121 3.75016 40.7152 3.75016C41.0227 3.75016 41.2566 3.83028 41.4168 3.99052C41.5814 4.15076 41.6702 4.3608 41.6832 4.62065C41.6918 4.74191 41.6961 4.84368 41.6961 4.92597C41.6961 5.00825 41.6918 5.10569 41.6832 5.21829C41.6702 5.47814 41.577 5.68818 41.4038 5.84842C41.2349 6.00866 41.0054 6.08878 40.7152 6.08878ZM40.7152 5.58208C40.8105 5.58208 40.8841 5.56259 40.9361 5.52361C40.9924 5.48464 41.0335 5.43483 41.0595 5.3742C41.0855 5.31357 41.0985 5.25294 41.0985 5.19231C41.1072 5.08404 41.1115 4.99309 41.1115 4.91947C41.1115 4.84152 41.1072 4.75274 41.0985 4.65313C41.0942 4.55352 41.0639 4.46257 41.0076 4.38029C40.9513 4.29367 40.8538 4.25036 40.7152 4.25036C40.581 4.25036 40.4857 4.29367 40.4294 4.38029C40.3731 4.46257 40.3406 4.55352 40.3319 4.65313C40.3276 4.75274 40.3255 4.84152 40.3255 4.91947C40.3255 4.99309 40.3276 5.08404 40.3319 5.19231C40.3406 5.25294 40.3558 5.31357 40.3774 5.3742C40.4034 5.43483 40.4424 5.48464 40.4944 5.52361C40.5507 5.56259 40.6243 5.58208 40.7152 5.58208ZM38.1232 3.78914C37.8331 3.78914 37.6036 3.71335 37.4347 3.56177C37.2658 3.41019 37.1726 3.20448 37.1553 2.94463C37.151 2.83203 37.1488 2.73459 37.1488 2.65231C37.1488 2.56569 37.151 2.46175 37.1553 2.34049C37.1726 2.08064 37.2614 1.8706 37.4217 1.71036C37.5862 1.55012 37.8201 1.47 38.1232 1.47C38.4307 1.47 38.6646 1.55012 38.8248 1.71036C38.9894 1.8706 39.0782 2.08064 39.0912 2.34049C39.0998 2.46175 39.1042 2.56569 39.1042 2.65231C39.1042 2.73459 39.0998 2.83203 39.0912 2.94463C39.0782 3.20448 38.9851 3.41019 38.8118 3.56177C38.6429 3.71335 38.4134 3.78914 38.1232 3.78914ZM38.1232 3.30842C38.2185 3.30842 38.2921 3.28893 38.3441 3.24995C38.4004 3.21098 38.4416 3.16117 38.4675 3.10054C38.4935 3.03991 38.5065 2.97711 38.5065 2.91215C38.5152 2.80388 38.5195 2.71294 38.5195 2.63931C38.5195 2.56136 38.5152 2.47258 38.5065 2.37297C38.5022 2.27336 38.4719 2.18241 38.4156 2.10013C38.3593 2.01785 38.2618 1.9767 38.1232 1.9767C37.989 1.9767 37.8937 2.01785 37.8374 2.10013C37.7811 2.18241 37.7508 2.27336 37.7465 2.37297C37.7421 2.47258 37.74 2.56136 37.74 2.63931C37.74 2.71294 37.7421 2.80388 37.7465 2.91215C37.7508 2.97711 37.7638 3.03991 37.7854 3.10054C37.8114 3.16117 37.8504 3.21098 37.9024 3.24995C37.9587 3.28893 38.0323 3.30842 38.1232 3.30842Z" fill="#FF5151"/>
<path d="M34.8567 11.0927L36.1559 9.79346M36.1559 9.79346L37.4552 11.0927M36.1559 9.79346V14.3408" stroke="#FF5151" stroke-width="0.649617" stroke-linecap="round" stroke-linejoin="round"/>
<rect x="1.22485" y="63.7124" width="74.882" height="16" rx="2.59847" fill="#E8E8E8"/>
<path d="M10.0438 68.1704V73.7124H9.30917V68.1704H10.0438ZM12.3657 70.6635V71.2649H9.88393V70.6635H12.3657ZM12.7425 68.1704V68.7718H9.88393V68.1704H12.7425ZM24.4632 68.6614L22.6285 73.7124H21.8787L23.9912 68.1704H24.4746L24.4632 68.6614ZM26.0009 73.7124L24.1625 68.6614L24.151 68.1704H24.6345L26.7546 73.7124H26.0009ZM25.9058 71.6608V72.2622H22.7922V71.6608H25.9058ZM38.6161 72.0947V68.1704H39.3469V72.0947C39.3469 72.4601 39.2721 72.7684 39.1223 73.0196C38.9726 73.2709 38.7658 73.4625 38.5019 73.5944C38.2405 73.7238 37.9398 73.7885 37.5998 73.7885C37.2598 73.7885 36.9578 73.7302 36.6939 73.6134C36.43 73.4967 36.2232 73.3191 36.0735 73.0805C35.9237 72.842 35.8489 72.5413 35.8489 72.1784H36.5835C36.5835 72.4119 36.6266 72.6035 36.7129 72.7532C36.7992 72.9029 36.9185 73.0133 37.0707 73.0844C37.2255 73.1554 37.4019 73.1909 37.5998 73.1909C37.7927 73.1909 37.9652 73.1503 38.1175 73.0691C38.2723 72.9854 38.3941 72.8623 38.4829 72.6999C38.5717 72.535 38.6161 72.3332 38.6161 72.0947ZM51.4368 68.6614L49.6021 73.7124H48.8523L50.9648 68.1704H51.4482L51.4368 68.6614ZM52.9746 73.7124L51.1361 68.6614L51.1247 68.1704H51.6081L53.7282 73.7124H52.9746ZM52.8794 71.6608V72.2622H49.7658V71.6608H52.8794ZM67.531 70.7663V71.1165C67.531 71.5326 67.479 71.9057 67.3749 72.2355C67.2709 72.5654 67.1212 72.8458 66.9258 73.0767C66.7304 73.3077 66.4957 73.484 66.2216 73.6058C65.9501 73.7276 65.6456 73.7885 65.3081 73.7885C64.9807 73.7885 64.68 73.7276 64.406 73.6058C64.1344 73.484 63.8985 73.3077 63.698 73.0767C63.5001 72.8458 63.3465 72.5654 63.2374 72.2355C63.1283 71.9057 63.0737 71.5326 63.0737 71.1165V70.7663C63.0737 70.3501 63.127 69.9784 63.2336 69.651C63.3427 69.3211 63.4962 69.0407 63.6942 68.8098C63.8921 68.5764 64.1268 68.3987 64.3984 68.2769C64.6724 68.1551 64.9731 68.0942 65.3005 68.0942C65.638 68.0942 65.9425 68.1551 66.214 68.2769C66.488 68.3987 66.7228 68.5764 66.9182 68.8098C67.1161 69.0407 67.2671 69.3211 67.3711 69.651C67.4777 69.9784 67.531 70.3501 67.531 70.7663ZM66.804 71.1165V70.7587C66.804 70.4288 66.7697 70.137 66.7012 69.8832C66.6352 69.6295 66.5375 69.4163 66.4081 69.2437C66.2787 69.0712 66.1201 68.9405 65.9323 68.8517C65.7471 68.7629 65.5365 68.7185 65.3005 68.7185C65.0721 68.7185 64.8653 68.7629 64.68 68.8517C64.4973 68.9405 64.34 69.0712 64.208 69.2437C64.0786 69.4163 63.9784 69.6295 63.9073 69.8832C63.8363 70.137 63.8008 70.4288 63.8008 70.7587V71.1165C63.8008 71.4489 63.8363 71.7432 63.9073 71.9995C63.9784 72.2533 64.0799 72.4677 64.2118 72.6428C64.3463 72.8154 64.5049 72.9461 64.6876 73.0349C64.8729 73.1237 65.0797 73.1681 65.3081 73.1681C65.5466 73.1681 65.7585 73.1237 65.9437 73.0349C66.129 72.9461 66.285 72.8154 66.4119 72.6428C66.5413 72.4677 66.639 72.2533 66.705 71.9995C66.771 71.7432 66.804 71.4489 66.804 71.1165Z" fill="#303030"/>
<defs>
<linearGradient id="paint0_linear_167_3625" x1="39.0787" y1="-10.344" x2="53.3703" y2="28.3083" gradientUnits="userSpaceOnUse">
<stop stop-color="#FF5151"/>
<stop offset="1" stop-color="white" stop-opacity="0"/>
</linearGradient>
</defs>
</svg>
