<svg width="257" height="64" viewBox="0 0 257 64" fill="none" xmlns="http://www.w3.org/2000/svg">
<path d="M30.2727 15.984C30.2731 15.985 30.2735 15.9859 30.2739 15.9869C30.2703 15.9836 30.2672 15.9803 30.2645 15.9773C30.2619 15.9744 30.26 15.9721 30.2583 15.9702C30.256 15.9675 30.2542 15.9654 30.252 15.9632M30.252 15.9632L30.252 15.9632C30.252 15.9632 30.252 15.9632 30.252 15.9632ZM30.2685 15.9467L30.2491 15.9272C30.2525 15.9355 30.2564 15.9446 30.2606 15.9546L30.2685 15.9467Z" fill="url(#paint0_linear_65_1218)" stroke="black" stroke-width="0.0467269"/>
<path opacity="0.3" d="M35.2389 27.9731C35.1587 28.1833 31.7905 36.7816 21.085 38.3221C21.0921 38.3206 21.0992 38.3191 21.1063 38.3177C21.8222 38.1694 22.822 37.9089 23.9579 37.4597C26.2295 36.5613 29.0464 34.908 31.2254 31.8883C33.3467 28.9506 34.2006 26.8214 34.5237 25.4252C34.6853 24.7271 34.7142 24.2123 34.7025 23.8715C34.7011 23.8312 34.6991 23.7933 34.6967 23.7579C35.0452 25.105 35.2346 26.5177 35.2389 27.9731Z" fill="#022C90" stroke="black" stroke-width="0.0467269"/>
<path d="M30.2684 15.9471C30.2768 15.9555 30.2852 15.9681 30.2978 15.9765" stroke="black" stroke-width="0.0467269"/>
<path opacity="0.3" d="M20.0301 38.444C22.5739 37.9806 24.7959 36.6147 26.3591 34.6875L26.363 34.6908C34.0396 26.0081 30.7214 17.0771 30.2726 15.9838L30.2819 15.9931L20.0301 38.444ZM20.0301 38.444C20.2466 38.424 20.457 38.4007 20.6673 38.3739C22.3746 38.0835 26.6416 36.4554 29.4898 31.1011L29.4898 31.101C32.1041 26.2063 32.967 21.576 32.1356 18.2136C31.5802 17.4236 30.9609 16.6764 30.282 15.9932L20.0301 38.444Z" fill="white" stroke="black" stroke-width="0.0467269"/>
<path d="M9.89925 21.3832C2.22955 30.0581 5.53484 38.9807 5.98837 40.0872C5.98564 40.0846 5.98264 40.0821 5.97934 40.0797C2.92766 37.0039 1.04163 32.7714 1.02338 28.1014C1.02375 28.1005 1.02416 28.0995 1.02463 28.0983C1.15068 27.7808 4.75959 18.6918 16.2769 17.6206C13.7141 18.0726 11.4729 19.4475 9.90303 21.3864L9.89925 21.3832Z" fill="url(#paint1_linear_65_1218)" stroke="black" stroke-width="0.0467269"/>
<path opacity="0.3" d="M1.02338 28.1013C1.10359 27.8911 4.47389 19.2872 15.1838 17.7508C15.1733 17.753 15.1628 17.7551 15.1523 17.7573C14.4368 17.9059 13.4376 18.1668 12.3022 18.6163C10.0316 19.5152 7.21582 21.1686 5.03685 24.1861C2.91552 27.1238 2.06164 29.253 1.7385 30.6492C1.57693 31.3473 1.54806 31.8621 1.55978 32.2029C1.56116 32.2432 1.56312 32.2811 1.56549 32.3165C1.21701 30.9694 1.02764 29.5567 1.02338 28.1013Z" fill="#022C90" stroke="black" stroke-width="0.0467269"/>
<path d="M5.99314 40.1269C5.98474 40.1185 5.97634 40.1059 5.96375 40.0975" stroke="black" stroke-width="0.0467269"/>
<path opacity="0.3" d="M16.2321 17.63C13.6883 18.0934 11.4663 19.4593 9.90313 21.3865L9.89923 21.3832C2.22256 30.0659 5.54085 38.9969 5.98959 40.0901L5.9803 40.0808C5.30135 39.3976 4.68203 38.6504 4.12663 37.8604C3.29518 34.498 4.15814 29.8677 6.77236 24.973L6.77238 24.9729C9.6206 19.6186 13.8876 17.9905 15.5949 17.7001C15.8052 17.6733 16.0156 17.6499 16.2321 17.63Z" fill="white" stroke="black" stroke-width="0.0467269"/>
<path d="M11.4773 36.269C20.1522 43.9387 29.0748 40.6334 30.1813 40.1799C30.1787 40.1826 30.1762 40.1856 30.1739 40.1889C27.0979 43.2406 22.8654 45.1267 18.1953 45.1449C17.9777 45.062 8.79193 41.4736 7.71471 29.8914C8.16669 32.4542 9.54161 34.6953 11.4805 36.2652L11.4773 36.269Z" fill="url(#paint2_linear_65_1218)" stroke="black" stroke-width="0.0467269"/>
<path opacity="0.5" d="M18.1954 45.145C17.9852 45.0648 9.38685 41.6966 7.84642 30.9911C7.84788 30.9982 7.84935 31.0053 7.85083 31.0125C7.99908 31.7284 8.25961 32.7281 8.70881 33.864C9.60719 36.1357 11.2605 38.9525 14.2802 41.1315C17.2179 43.2528 19.3471 44.1067 20.7433 44.4299C21.4414 44.5914 21.9562 44.6203 22.297 44.6086C22.3373 44.6072 22.3752 44.6052 22.4106 44.6029C21.0635 44.9514 19.6508 45.1407 18.1954 45.145Z" fill="#F44B3C" stroke="black" stroke-width="0.0467269"/>
<path d="M30.2208 40.1749C30.2124 40.1833 30.1998 40.1917 30.1914 40.2043" stroke="black" stroke-width="0.0467269"/>
<path opacity="0.3" d="M7.72413 29.9363C8.18753 32.4801 9.55339 34.7021 11.4806 36.2652L11.4773 36.2691C20.16 43.9458 29.091 40.6275 30.1843 40.1788L30.175 40.188C29.4917 40.867 28.7445 41.4863 27.9545 42.0417C24.5921 42.8732 19.9618 42.0102 15.0671 39.396L15.067 39.396C9.71273 36.5477 8.08458 32.2808 7.79417 30.5735C7.76741 30.3631 7.74406 30.1527 7.72413 29.9363Z" fill="white" stroke="black" stroke-width="0.0467269"/>
<path d="M24.7849 19.8051C16.1101 12.1355 7.18744 15.4407 6.08097 15.8943C6.08349 15.8915 6.08601 15.8885 6.08839 15.8852C9.16426 12.8335 13.3967 10.9475 18.0667 10.9293C18.0676 10.9296 18.0687 10.93 18.0698 10.9305C18.3873 11.0566 27.4763 14.6655 28.5475 26.1828C28.0955 23.62 26.7206 21.3788 24.7817 19.8089L24.7849 19.8051Z" fill="url(#paint3_linear_65_1218)" stroke="black" stroke-width="0.0467269"/>
<path opacity="0.5" d="M18.0671 10.9293C18.2773 11.0095 26.8812 14.3798 28.4176 25.0897C28.4154 25.0792 28.4132 25.0687 28.4111 25.0581C28.2625 24.3427 28.0015 23.3434 27.5521 22.2081C26.6532 19.9375 24.9998 17.1217 21.9823 14.9427C19.0446 12.8214 16.9154 11.9675 15.5192 11.6444C14.8211 11.4828 14.3063 11.4539 13.9655 11.4657C13.9252 11.467 13.8873 11.469 13.8518 11.4714C15.199 11.1229 16.6117 10.9335 18.0671 10.9293Z" fill="#F44B3C" stroke="black" stroke-width="0.0467269"/>
<path d="M6.04077 15.899C6.04917 15.8906 6.06177 15.8822 6.07017 15.8696" stroke="black" stroke-width="0.0467269"/>
<path opacity="0.3" d="M28.5381 26.1381C28.0747 23.5943 26.7088 21.3723 24.7816 19.8091L24.7849 19.8052C16.1022 12.1286 7.17119 15.4468 6.07796 15.8956L6.08725 15.8863C6.77047 15.2074 7.5177 14.588 8.30769 14.0326C11.6701 13.2012 16.3004 14.0641 21.1951 16.6784L21.1952 16.6784C26.5495 19.5266 28.1776 23.7936 28.468 25.5009C28.4948 25.7113 28.5182 25.9216 28.5381 26.1381Z" fill="white" stroke="black" stroke-width="0.0467269"/>
<path d="M12.0764 36.7207C14.2073 38.2106 16.7637 38.8231 19.2459 38.5643L19.2461 38.5664C30.8141 37.8552 34.783 29.1897 35.2388 28.1015C35.2227 32.4398 33.5686 36.7716 30.2764 40.091C30.0586 40.1881 21.0291 44.1408 12.0764 36.7207Z" fill="url(#paint4_linear_65_1218)" stroke="black" stroke-width="0.0467269"/>
<mask id="path-18-inside-1_65_1218" fill="white">
<path d="M30.2858 40.1062V40.1119V40.1062Z"/>
</mask>
<path d="M30.2858 40.1062V40.1119V40.1062Z" fill="#F44B3C"/>
<path d="M30.239 40.1062V40.1119H30.3325V40.1062H30.239ZM30.3325 40.1119V40.1062H30.239V40.1119H30.3325Z" fill="black" mask="url(#path-18-inside-1_65_1218)"/>
<path opacity="0.2" d="M30.2722 40.0866C30.0614 40.1805 21.599 43.8782 12.9394 37.3926C12.9478 37.3982 12.9564 37.4039 12.965 37.4095C13.5764 37.8107 14.468 38.3333 15.5891 38.8186C17.8313 39.7894 20.9923 40.6119 24.6661 40.0178C28.2424 39.4414 30.3516 38.5401 31.5674 37.7817C32.1753 37.4024 32.5598 37.0589 32.7926 36.8097C32.8203 36.78 32.8458 36.7518 32.8693 36.7249C32.1638 37.922 31.2981 39.0523 30.2722 40.0866Z" fill="#35029C" stroke="black" stroke-width="0.0467269"/>
<path d="M35.2622 28.0717C35.2622 28.0843 35.2622 28.0968 35.2622 28.1136" stroke="black" stroke-width="0.0467269"/>
<path opacity="0.2" d="M12.6021 37.1639C14.0197 38.166 18.1954 40.0419 24.0028 38.2645C29.3178 36.6414 33.2065 33.9775 35.001 31.0009C35.168 30.0459 35.258 29.078 35.2623 28.1101L12.6021 37.1639ZM35.2389 28.1099V28.11C35.2346 29.075 35.1451 30.0402 34.9788 30.9926C33.1874 33.9608 29.3058 36.6206 23.996 38.2422L23.996 38.2422C18.197 40.017 14.0289 38.1438 12.616 37.1451C12.4705 37.0326 12.3276 36.9151 12.183 36.7962C12.1635 36.7802 12.144 36.7642 12.1245 36.7481C14.2479 38.2122 16.7816 38.8188 19.246 38.56L19.2461 38.562C30.8148 37.8508 34.7836 29.1843 35.2389 28.0969V28.097V28.0971V28.0973V28.0974V28.0976V28.0977V28.0979V28.098V28.0982V28.0983V28.0985V28.0986V28.0988V28.0989V28.0991V28.0992V28.0994V28.0995V28.0997V28.0998V28.1V28.1001V28.1003V28.1004V28.1006V28.1007V28.1009V28.101V28.1012V28.1013V28.1015V28.1016V28.1018V28.1019V28.1021V28.1022V28.1024V28.1025V28.1027V28.1028V28.103V28.1031V28.1033V28.1034V28.1036V28.1037V28.1039V28.104V28.1042V28.1043V28.1045V28.1046V28.1048V28.1049V28.1051V28.1052V28.1054V28.1055V28.1057V28.1058V28.106V28.1061V28.1063V28.1064V28.1066V28.1067V28.1069V28.107V28.1072V28.1073V28.1075V28.1077V28.1078V28.108V28.1081V28.1083V28.1084V28.1086V28.1087V28.1089V28.109V28.1092V28.1093V28.1095V28.1096V28.1098V28.1099Z" fill="white" stroke="black" stroke-width="0.0467269"/>
<path d="M17.0163 17.5102L17.0162 17.5081C5.44815 18.2192 1.47921 26.8847 1.02345 27.973C1.0395 23.6346 2.69363 19.3029 5.98584 15.9835C6.20363 15.8863 15.2331 11.9336 24.1859 19.3538L17.0163 17.5102Z" fill="url(#paint5_linear_65_1218)" stroke="black" stroke-width="0.0467269"/>
<g opacity="0.7">
<mask id="path-24-inside-2_65_1218" fill="white">
<path d="M5.97656 15.9696V15.9639V15.9696Z"/>
</mask>
<path d="M5.97656 15.9696V15.9639V15.9696Z" fill="#F44B3C"/>
<path d="M6.02329 15.9696V15.9639H5.92984V15.9696H6.02329ZM5.92984 15.9639V15.9696H6.02329V15.9639H5.92984Z" fill="black" mask="url(#path-24-inside-2_65_1218)"/>
</g>
<path opacity="0.2" d="M5.99012 15.9876C6.20091 15.8937 14.6614 12.1968 23.3238 18.6793C23.3164 18.6744 23.309 18.6695 23.3016 18.6646C22.6902 18.2634 21.7986 17.7409 20.6774 17.2555C18.4352 16.2848 15.2742 15.4622 11.6004 16.0563C8.02205 16.6327 5.9118 17.534 4.69546 18.2925C4.08728 18.6717 3.70263 19.0152 3.46976 19.2645C3.44203 19.2941 3.41645 19.3225 3.39291 19.3494C4.09842 18.1522 4.96415 17.0218 5.99012 15.9876Z" fill="#35029C" stroke="black" stroke-width="0.0467269"/>
<path d="M1 28.0024C1 27.9898 1 27.9772 1 27.9646" stroke="black" stroke-width="0.0467269"/>
<path opacity="0.2" d="M24.1378 19.3263C22.0144 17.8621 19.4807 17.2556 17.0163 17.5144L17.0162 17.5124C5.44744 18.2236 1.47872 26.8901 1.02336 27.9775V27.9774V27.9773V27.9771V27.977V27.9768V27.9767V27.9765V27.9764V27.9762V27.9761V27.9759V27.9758V27.9756V27.9755V27.9753V27.9752V27.975V27.9749V27.9747V27.9746V27.9744V27.9743V27.9741V27.974V27.9738V27.9737V27.9735V27.9734V27.9732V27.973V27.9729V27.9727V27.9726V27.9724V27.9723V27.9721V27.972V27.9718V27.9717V27.9715V27.9714V27.9712V27.9711V27.9709V27.9708V27.9706V27.9705V27.9703V27.9702V27.97V27.9699V27.9697V27.9696V27.9694V27.9693V27.9691V27.969V27.9688V27.9687V27.9685V27.9684V27.9682V27.9681V27.9679V27.9678V27.9676V27.9675V27.9673V27.9672V27.967V27.9669V27.9667V27.9666V27.9664V27.9663V27.9661V27.966V27.9658V27.9657V27.9655V27.9654V27.9652V27.9651V27.9649V27.9648V27.9646V27.9645V27.9644C1.02764 26.9993 1.11718 26.0342 1.28351 25.0818C3.07487 22.1136 6.95647 19.4538 12.2663 17.8322L12.2663 17.8322C18.0653 16.0574 22.2333 17.9306 23.6463 18.9293C23.7918 19.0417 23.9347 19.1592 24.0792 19.2781C24.0987 19.2942 24.1183 19.3102 24.1378 19.3263Z" fill="white" stroke="black" stroke-width="0.0467269"/>
<path d="M9.44778 21.9823C7.95785 24.1131 7.3454 26.6696 7.60419 29.1518L7.6021 29.152C8.31323 40.72 16.9787 44.6889 18.067 45.1447C13.7286 45.1286 9.3969 43.4745 6.07745 40.1823C5.98032 39.9645 2.02762 30.935 9.44778 21.9823Z" fill="url(#paint6_linear_65_1218)" stroke="black" stroke-width="0.0467269"/>
<g opacity="0.3">
<mask id="path-30-inside-3_65_1218" fill="white">
<path d="M6.06367 40.1917H6.05798H6.06367Z"/>
</mask>
<path d="M6.06367 40.1917H6.05798H6.06367Z" fill="#F44B3C"/>
<path d="M6.06367 40.1449H6.05798V40.2384H6.06367V40.1449ZM6.05798 40.2384H6.06367V40.1449H6.05798V40.2384Z" fill="black" mask="url(#path-30-inside-3_65_1218)"/>
<path opacity="0.7" d="M6.0818 40.178C5.98791 39.9672 2.2902 31.5049 8.77574 22.8452C8.77014 22.8537 8.76452 22.8623 8.75887 22.8709C8.35763 23.4823 7.83512 24.3739 7.34974 25.495C6.37899 27.7372 5.55647 30.8982 6.15054 34.572C6.72694 38.1483 7.62825 40.2574 8.38672 41.4732C8.76596 42.0812 9.10947 42.4657 9.3587 42.6985C9.38832 42.7261 9.41661 42.7517 9.44347 42.7752C8.24634 42.0697 7.11604 41.204 6.0818 40.178Z" fill="#35029C" stroke="black" stroke-width="0.0467269"/>
</g>
<path d="M18.0961 45.1682C18.0835 45.1682 18.0709 45.1682 18.0583 45.1682" stroke="black" stroke-width="0.0467269"/>
<path opacity="0.2" d="M9.42028 22.0302C7.95613 24.1537 7.34957 26.6873 7.60837 29.1517L7.60641 29.1518C8.31759 40.7206 16.9841 44.6893 18.0715 45.1447H18.0714H18.0713H18.0711H18.071H18.0708H18.0707H18.0705H18.0704H18.0702H18.0701H18.0699H18.0698H18.0696H18.0695H18.0693H18.0692H18.069H18.0688H18.0687H18.0685H18.0684H18.0682H18.0681H18.0679H18.0678H18.0676H18.0675H18.0673H18.0672H18.067H18.0669H18.0667H18.0666H18.0664H18.0663H18.0661H18.066H18.0658H18.0657H18.0655H18.0654H18.0652H18.0651H18.0649H18.0648H18.0646H18.0645H18.0643H18.0642H18.064H18.0639H18.0637H18.0636H18.0634H18.0633H18.0631H18.063H18.0628H18.0627H18.0625H18.0624H18.0622H18.0621H18.0619H18.0618H18.0616H18.0615H18.0613H18.0612H18.061H18.0609H18.0607H18.0606H18.0604H18.0603H18.0601H18.06H18.0598H18.0597H18.0595H18.0594H18.0592H18.0591H18.0589H18.0588H18.0586H18.0585H18.0584C17.0933 45.1404 16.1282 45.0508 15.1758 44.8845C12.2076 43.0932 9.54778 39.2115 7.92617 33.9018L7.92617 33.9018C6.15139 28.1027 8.02462 23.9347 9.0233 22.5217C9.13572 22.3762 9.25321 22.2334 9.37212 22.0888C9.38815 22.0693 9.4042 22.0498 9.42028 22.0302Z" fill="white" stroke="black" stroke-width="0.0467269"/>
<path d="M26.8145 34.0918C28.3045 31.9609 28.9169 29.4044 28.6581 26.9222L28.6602 26.9221C27.9491 15.3549 19.2887 11.3857 18.196 10.9293C22.5341 10.9456 26.8656 12.5997 30.1849 15.8917C30.282 16.1096 34.2347 25.139 26.8145 34.0918Z" fill="url(#paint7_linear_65_1218)" stroke="black" stroke-width="0.0467269"/>
<g opacity="0.3">
<mask id="path-36-inside-4_65_1218" fill="white">
<path d="M30.2001 15.8827H30.2058H30.2001Z"/>
</mask>
<path d="M30.2001 15.8827H30.2058H30.2001Z" fill="#F44B3C"/>
<path d="M30.2001 15.9294H30.2058V15.836H30.2001V15.9294ZM30.2058 15.836H30.2001V15.9294H30.2058V15.836Z" fill="black" mask="url(#path-36-inside-4_65_1218)"/>
<path opacity="0.7" d="M30.1804 15.8961C30.2743 16.1069 33.9712 24.5674 27.4887 33.2298C27.4936 33.2224 27.4985 33.215 27.5034 33.2076C27.9046 32.5962 28.4271 31.7046 28.9125 30.5834C29.8832 28.3412 30.7058 25.1802 30.1117 21.5065C29.5353 17.9281 28.634 15.8178 27.8755 14.6015C27.4963 13.9933 27.1528 13.6086 26.9035 13.3758C26.8739 13.348 26.8455 13.3225 26.8186 13.2989C28.0158 14.0044 29.1462 14.8702 30.1804 15.8961Z" fill="#35029C" stroke="black" stroke-width="0.0467269"/>
</g>
<path d="M18.1654 10.9059C18.178 10.9059 18.1906 10.9059 18.2032 10.9059" stroke="black" stroke-width="0.0467269"/>
<path opacity="0.2" d="M27.2577 33.5661C28.2599 32.1485 30.1358 27.9728 28.3584 22.1653C26.7352 16.8504 24.0713 12.9616 21.0948 11.1671C20.1398 11.0001 19.1718 10.9102 18.2039 10.9059L27.2577 33.5661ZM18.2039 10.9292C19.1689 10.9335 20.1341 11.0231 21.0865 11.1894C24.0547 12.9808 26.7145 16.8624 28.3361 22.1721L28.3361 22.1722C30.1108 27.9712 28.2376 32.1392 27.239 33.5522C27.1265 33.6977 27.009 33.8405 26.8901 33.9851C26.8741 34.0046 26.858 34.0241 26.842 34.0437C28.3061 31.9203 28.9127 29.3866 28.6539 26.9222L28.6558 26.9221C27.9447 15.3533 19.2781 11.3846 18.1907 10.9292H18.1908H18.191H18.1911H18.1913H18.1914H18.1916H18.1917H18.1919H18.192H18.1922H18.1923H18.1925H18.1926H18.1928H18.1929H18.1931H18.1932H18.1934H18.1935H18.1937H18.1938H18.194H18.1941H18.1943H18.1944H18.1946H18.1947H18.1949H18.195H18.1952H18.1953H18.1955H18.1957H18.1958H18.196H18.1961H18.1963H18.1964H18.1966H18.1967H18.1969H18.197H18.1972H18.1973H18.1975H18.1976H18.1978H18.1979H18.1981H18.1982H18.1984H18.1985H18.1987H18.1988H18.199H18.1991H18.1993H18.1994H18.1996H18.1997H18.1999H18.2H18.2002H18.2003H18.2005H18.2006H18.2008H18.2009H18.2011H18.2012H18.2014H18.2015H18.2017H18.2018H18.202H18.2021H18.2023H18.2024H18.2026H18.2027H18.2029H18.203H18.2032H18.2033H18.2035H18.2036H18.2038H18.2039Z" fill="white" stroke="black" stroke-width="0.0467269"/>
<path d="M251.232 57.2241H100.04C98.9938 57.2241 98.1472 57.3244 98.1472 57.4484C98.1472 57.5724 98.9938 57.6727 100.04 57.6727H251.232C252.278 57.6727 253.125 57.5724 253.125 57.4484C253.125 57.3244 252.278 57.2241 251.232 57.2241Z" fill="url(#paint8_linear_65_1218)"/>
<path d="M57.0736 57.3059H39.1083C38.984 57.3059 38.8834 57.3706 38.8834 57.4506C38.8834 57.5306 38.984 57.5954 39.1083 57.5954H57.0736C57.1979 57.5954 57.2985 57.5306 57.2985 57.4506C57.2985 57.3706 57.1979 57.3059 57.0736 57.3059Z" fill="url(#paint9_linear_65_1218)"/>
<path d="M65.7083 60.1278C65.5092 60.1278 65.3485 60.0397 65.3485 59.9314V56.3568C65.3485 56.2482 65.5099 56.1604 65.7083 56.1604C65.9073 56.1604 66.068 56.2485 66.068 56.3568V59.9314C66.068 60.0397 65.9067 60.1278 65.7083 60.1278Z" fill="url(#paint10_linear_65_1218)"/>
<path d="M66.8716 58.6175C66.6726 58.6175 66.5118 58.5293 66.5118 58.421V56.6365C66.5118 56.5278 66.6732 56.4401 66.8716 56.4401C67.0707 56.4401 67.2314 56.5282 67.2314 56.6365V58.421C67.2314 58.5293 67.07 58.6175 66.8716 58.6175Z" fill="url(#paint11_linear_65_1218)"/>
<path d="M62.2666 58.2713H62.1697C61.9976 58.2713 61.8584 58.1953 61.8584 58.1013V56.3369C61.8584 56.2283 62.0198 56.1405 62.2182 56.1405C62.4172 56.1405 62.5779 56.2286 62.5779 56.3369V58.1013C62.5779 58.1953 62.4387 58.2713 62.2666 58.2713Z" fill="url(#paint12_linear_65_1218)"/>
<path d="M77.3412 57.4819C77.1421 57.4819 76.9814 57.3938 76.9814 57.2855V54.2184C76.9814 54.1097 77.1428 54.022 77.3412 54.022C77.5402 54.022 77.7009 54.1101 77.7009 54.2184V57.2855C77.7009 57.3942 77.5402 57.4819 77.3412 57.4819Z" fill="url(#paint13_linear_65_1218)"/>
<path d="M77.3412 53.7971C77.1421 53.7971 76.9814 53.7089 76.9814 53.6006V53.1427C76.9814 53.034 77.1428 52.9463 77.3412 52.9463C77.5402 52.9463 77.7009 53.0344 77.7009 53.1427V53.6002C77.7009 53.7089 77.5402 53.7971 77.3412 53.7971Z" fill="url(#paint14_linear_65_1218)"/>
<path d="M77.3412 61.9852C77.1421 61.9852 76.9814 61.8971 76.9814 61.7887V57.7784C76.9814 57.6697 77.1428 57.5819 77.3412 57.5819C77.5402 57.5819 77.7009 57.67 77.7009 57.7784V61.7884C77.7009 61.8971 77.5402 61.9852 77.3412 61.9852Z" fill="url(#paint15_linear_65_1218)"/>
<path d="M78.5045 60.0419C78.3054 60.0419 78.1447 59.9538 78.1447 59.8454V55.2119C78.1447 55.1033 78.3061 55.0155 78.5045 55.0155C78.7035 55.0155 78.8642 55.1036 78.8642 55.2119V59.8451C78.8642 59.9538 78.7029 60.0419 78.5045 60.0419Z" fill="url(#paint16_linear_65_1218)"/>
<path d="M76.1778 55.9357C75.9787 55.9357 75.818 55.8475 75.818 55.7392V53.7436C75.818 53.6349 75.9794 53.5471 76.1778 53.5471C76.3768 53.5471 76.5375 53.6352 76.5375 53.7436V55.7392C76.5375 55.8479 76.3768 55.9357 76.1778 55.9357Z" fill="url(#paint17_linear_65_1218)"/>
<path d="M76.1778 62.6819C75.9787 62.6819 75.818 62.5938 75.818 62.4855V56.2801C75.818 56.1714 75.9794 56.0836 76.1778 56.0836C76.3768 56.0836 76.5375 56.1717 76.5375 56.2801V62.4855C76.5375 62.5942 76.3768 62.6819 76.1778 62.6819Z" fill="url(#paint18_linear_65_1218)"/>
<path d="M63.43 59.0717H63.3332C63.1611 59.0717 63.0219 58.9957 63.0219 58.9017V56.3013C63.0219 56.1926 63.1832 56.1049 63.3816 56.1049C63.5807 56.1049 63.7414 56.193 63.7414 56.3013V58.9017C63.7414 58.9957 63.6022 59.0717 63.43 59.0717Z" fill="url(#paint19_linear_65_1218)"/>
<path d="M63.43 55.9615H63.3332C63.1611 55.9615 63.0219 55.8855 63.0219 55.7915V55.3439C63.0219 55.2352 63.1832 55.1475 63.3816 55.1475C63.5807 55.1475 63.7414 55.2356 63.7414 55.3439V55.7915C63.7414 55.8851 63.6022 55.9615 63.43 55.9615Z" fill="url(#paint20_linear_65_1218)"/>
<path d="M73.851 61.7778C74.0501 61.7778 74.2108 61.6897 74.2108 61.5813V51.8554C74.2108 51.7467 74.0494 51.6589 73.851 51.6589C73.652 51.6589 73.4913 51.7471 73.4913 51.8554V61.581C73.4913 61.69 73.652 61.7778 73.851 61.7778Z" fill="url(#paint21_linear_65_1218)"/>
<path d="M73.851 63.4008C74.0501 63.4008 74.2108 63.3127 74.2108 63.2044V62.1538C74.2108 62.0452 74.0494 61.9574 73.851 61.9574C73.652 61.9574 73.4913 62.0455 73.4913 62.1538V63.2044C73.4913 63.313 73.652 63.4008 73.851 63.4008Z" fill="url(#paint22_linear_65_1218)"/>
<path d="M70.361 62.6074C70.5601 62.6074 70.7208 62.5192 70.7208 62.4109V52.6464C70.7208 52.5377 70.5594 52.45 70.361 52.45C70.162 52.45 70.0013 52.5381 70.0013 52.6464V62.4106C70.0013 62.5192 70.1627 62.6074 70.361 62.6074Z" fill="url(#paint23_linear_65_1218)"/>
<path d="M71.5243 58.8606C71.7234 58.8606 71.8841 58.7725 71.8841 58.6642V53.9389C71.8841 53.8302 71.7227 53.7424 71.5243 53.7424C71.3253 53.7424 71.1646 53.8306 71.1646 53.9389V58.6642C71.1646 58.7729 71.3253 58.8606 71.5243 58.8606Z" fill="url(#paint24_linear_65_1218)"/>
<path d="M71.5243 61.4612C71.7234 61.4612 71.8841 61.3731 71.8841 61.2648V59.1575C71.8841 59.0488 71.7227 58.9611 71.5243 58.9611C71.3253 58.9611 71.1646 59.0492 71.1646 59.1575V61.2648C71.1646 61.3731 71.3253 61.4612 71.5243 61.4612Z" fill="url(#paint25_linear_65_1218)"/>
<path d="M72.6877 62.4958C72.8868 62.4958 73.0475 62.4076 73.0475 62.2993V55.4499C73.0475 55.3412 72.8861 55.2534 72.6877 55.2534C72.4887 55.2534 72.3279 55.3415 72.3279 55.4499V62.2993C72.3279 62.408 72.4887 62.4958 72.6877 62.4958Z" fill="url(#paint26_linear_65_1218)"/>
<path d="M72.6877 55.0823C72.8868 55.0823 73.0475 54.9942 73.0475 54.8859V53.5104C73.0475 53.4017 72.8861 53.314 72.6877 53.314C72.4887 53.314 72.3279 53.4021 72.3279 53.5104V54.8855C72.3279 54.9942 72.4887 55.0823 72.6877 55.0823Z" fill="url(#paint27_linear_65_1218)"/>
<path d="M72.6877 53.1428C72.8868 53.1428 73.0475 53.0547 73.0475 52.9464V52.5182C73.0475 52.4095 72.8861 52.3218 72.6877 52.3218C72.4887 52.3218 72.3279 52.4099 72.3279 52.5182V52.946C72.3279 53.0547 72.4887 53.1428 72.6877 53.1428Z" fill="url(#paint28_linear_65_1218)"/>
<path d="M69.1977 60.5189C69.3967 60.5189 69.5574 60.4308 69.5574 60.3225V54.7347C69.5574 54.626 69.396 54.5382 69.1977 54.5382C68.9986 54.5382 68.8379 54.6263 68.8379 54.7347V60.3225C68.8379 60.4311 68.9993 60.5189 69.1977 60.5189Z" fill="url(#paint29_linear_65_1218)"/>
<path d="M75.0144 61.0743C75.2135 61.0743 75.3742 60.9862 75.3742 60.8779V54.1794C75.3742 54.0707 75.2128 53.9829 75.0144 53.9829C74.8154 53.9829 74.6547 54.071 74.6547 54.1794V60.8779C74.6547 60.9862 74.8154 61.0743 75.0144 61.0743Z" fill="url(#paint30_linear_65_1218)"/>
<path d="M68.0343 59.309C67.8353 59.309 67.6746 59.2209 67.6746 59.1126V55.9449C67.6746 55.8362 67.836 55.7484 68.0343 55.7484C68.2334 55.7484 68.3941 55.8365 68.3941 55.9449V59.1126C68.3948 59.2212 68.2334 59.309 68.0343 59.309Z" fill="url(#paint31_linear_65_1218)"/>
<path d="M61.0548 57.7C60.8558 57.7 60.6951 57.6119 60.6951 57.5036V56.9087C60.6951 56.8 60.8565 56.7123 61.0548 56.7123C61.2539 56.7123 61.4146 56.8004 61.4146 56.9087V57.5036C61.4146 57.6119 61.2539 57.7 61.0548 57.7Z" fill="url(#paint32_linear_65_1218)"/>
<path d="M94.7747 57.6307C94.5757 57.6307 94.415 57.5425 94.415 57.4342V56.8394C94.415 56.7307 94.5764 56.6429 94.7747 56.6429C94.9738 56.6429 95.1345 56.7311 95.1345 56.8394V57.4342C95.1345 57.5429 94.9738 57.6307 94.7747 57.6307Z" fill="url(#paint33_linear_65_1218)"/>
<path d="M64.5934 58.0623H64.4965C64.3244 58.0623 64.1852 57.9863 64.1852 57.8923V54.4591C64.1852 54.3505 64.3466 54.2627 64.5449 54.2627C64.744 54.2627 64.9047 54.3508 64.9047 54.4591V57.8923C64.9047 57.9863 64.7655 58.0623 64.5934 58.0623Z" fill="url(#paint34_linear_65_1218)"/>
<path d="M64.5934 60.3972H64.4965C64.3244 60.3972 64.1852 60.3212 64.1852 60.2272V58.4681C64.1852 58.3594 64.3466 58.2716 64.5449 58.2716C64.744 58.2716 64.9047 58.3597 64.9047 58.4681V60.2272C64.9047 60.3209 64.7655 60.3972 64.5934 60.3972Z" fill="url(#paint35_linear_65_1218)"/>
<path d="M88.9741 62.1636C88.775 62.1636 88.6143 62.0755 88.6143 61.9672V53.2576C88.6143 53.1489 88.7757 53.0612 88.9741 53.0612C89.1731 53.0612 89.3339 53.1493 89.3339 53.2576V61.9672C89.3345 62.0755 89.1731 62.1636 88.9741 62.1636Z" fill="url(#paint36_linear_65_1218)"/>
<path d="M83.1573 61.563C82.9583 61.563 82.7975 61.4748 82.7975 61.3665V57.0253C82.7975 56.9166 82.9589 56.8289 83.1573 56.8289C83.3564 56.8289 83.5171 56.917 83.5171 57.0253V61.3661C83.5178 61.4748 83.3564 61.563 83.1573 61.563Z" fill="url(#paint37_linear_65_1218)"/>
<path d="M90.1375 58.8664C89.9384 58.8664 89.7777 58.7783 89.7777 58.67V54.6009C89.7777 54.4922 89.9391 54.4044 90.1375 54.4044C90.3365 54.4044 90.4972 54.4925 90.4972 54.6009V58.6696C90.4972 58.7783 90.3365 58.8664 90.1375 58.8664Z" fill="url(#paint38_linear_65_1218)"/>
<path d="M90.1375 60.6716C89.9384 60.6716 89.7777 60.5835 89.7777 60.4751V59.226C89.7777 59.1173 89.9391 59.0295 90.1375 59.0295C90.3365 59.0295 90.4972 59.1177 90.4972 59.226V60.4751C90.4972 60.5835 90.3365 60.6716 90.1375 60.6716Z" fill="url(#paint39_linear_65_1218)"/>
<path d="M87.8107 56.6432C87.6116 56.6432 87.4509 56.5551 87.4509 56.4468V55.7649C87.4509 55.6562 87.6123 55.5685 87.8107 55.5685C88.0097 55.5685 88.1705 55.6566 88.1705 55.7649V56.4468C88.1711 56.5551 88.0097 56.6432 87.8107 56.6432Z" fill="url(#paint40_linear_65_1218)"/>
<path d="M87.8107 63.1725C87.6116 63.1725 87.4509 63.0844 87.4509 62.9761V57.1004C87.4509 56.9917 87.6123 56.9039 87.8107 56.9039C88.0097 56.9039 88.1705 56.9921 88.1705 57.1004V62.9757C88.1711 63.0844 88.0097 63.1725 87.8107 63.1725Z" fill="url(#paint41_linear_65_1218)"/>
<path d="M86.6474 61.6325C86.4483 61.6325 86.2876 61.5444 86.2876 61.4361V56.9561C86.2876 56.8474 86.449 56.7596 86.6474 56.7596C86.8464 56.7596 87.0071 56.8478 87.0071 56.9561V61.4361C87.0078 61.5448 86.8464 61.6325 86.6474 61.6325Z" fill="url(#paint42_linear_65_1218)"/>
<path d="M91.3008 60.9035C91.1018 60.9035 90.941 60.8154 90.941 60.7071V57.0253C90.941 56.9166 91.1024 56.8289 91.3008 56.8289C91.4999 56.8289 91.6606 56.917 91.6606 57.0253V60.7071C91.6606 60.8157 91.4999 60.9035 91.3008 60.9035Z" fill="url(#paint43_linear_65_1218)"/>
<path d="M84.3206 59.3918C84.1216 59.3918 83.9609 59.3037 83.9609 59.1953V56.6155C83.9609 56.5068 84.1223 56.4191 84.3206 56.4191C84.5197 56.4191 84.6804 56.5072 84.6804 56.6155V59.1953C84.6811 59.3037 84.5197 59.3918 84.3206 59.3918Z" fill="url(#paint44_linear_65_1218)"/>
<path d="M84.3206 62.6239C84.1216 62.6239 83.9609 62.5357 83.9609 62.4274V59.704C83.9609 59.5953 84.1223 59.5076 84.3206 59.5076C84.5197 59.5076 84.6804 59.5957 84.6804 59.704V62.427C84.6811 62.5357 84.5197 62.6239 84.3206 62.6239Z" fill="url(#paint45_linear_65_1218)"/>
<path d="M80.8313 59.0291C80.6322 59.0291 80.4715 58.9409 80.4715 58.8326V56.2245C80.4715 56.1158 80.6329 56.0281 80.8313 56.0281C81.0303 56.0281 81.191 56.1162 81.191 56.2245V58.8326C81.191 58.9409 81.0296 59.0291 80.8313 59.0291Z" fill="url(#paint46_linear_65_1218)"/>
<path d="M79.6679 59.8956C79.4689 59.8956 79.3082 59.8075 79.3082 59.6992V55.3579C79.3082 55.2493 79.4696 55.1615 79.6679 55.1615C79.867 55.1615 80.0277 55.2496 80.0277 55.3579V59.6988C80.0277 59.8075 79.8663 59.8956 79.6679 59.8956Z" fill="url(#paint47_linear_65_1218)"/>
<path d="M81.9946 60.9832C81.7955 60.9832 81.6348 60.8951 81.6348 60.7868V57.6051C81.6348 57.4964 81.7962 57.4087 81.9946 57.4087C82.1936 57.4087 82.3544 57.4968 82.3544 57.6051V60.7868C82.3544 60.8951 82.193 60.9832 81.9946 60.9832Z" fill="url(#paint48_linear_65_1218)"/>
<path d="M85.484 60.951C85.285 60.951 85.1243 60.8628 85.1243 60.7545V57.6378C85.1243 57.5292 85.2857 57.4414 85.484 57.4414C85.6831 57.4414 85.8438 57.5295 85.8438 57.6378V60.7545C85.8445 60.8628 85.6831 60.951 85.484 60.951Z" fill="url(#paint49_linear_65_1218)"/>
<path d="M93.6275 58.1889C93.4285 58.1889 93.2678 58.1008 93.2678 57.9925V56.2814C93.2678 56.1727 93.4292 56.085 93.6275 56.085C93.8266 56.085 93.9873 56.1731 93.9873 56.2814V57.9925C93.9873 58.1012 93.8259 58.1889 93.6275 58.1889Z" fill="url(#paint50_linear_65_1218)"/>
<path d="M92.4641 57.7215C92.2651 57.7215 92.1044 57.6334 92.1044 57.5251V55.9572C92.1044 55.8485 92.2658 55.7607 92.4641 55.7607C92.6632 55.7607 92.8239 55.8489 92.8239 55.9572V57.5251C92.8239 57.6334 92.6632 57.7215 92.4641 57.7215Z" fill="url(#paint51_linear_65_1218)"/>
<path d="M92.4641 58.8168C92.2651 58.8168 92.1044 58.7287 92.1044 58.6204V58.0329C92.1044 57.9242 92.2658 57.8364 92.4641 57.8364C92.6632 57.8364 92.8239 57.9245 92.8239 58.0329V58.6204C92.8239 58.7287 92.6632 58.8168 92.4641 58.8168Z" fill="url(#paint52_linear_65_1218)"/>
<mask id="path-86-outside-5_65_1218" maskUnits="userSpaceOnUse" x="38.6029" y="11" width="42" height="37" fill="black">
<rect fill="white" x="38.6029" y="11" width="42" height="37"/>
<path d="M43.1692 21.671C43.8409 20.7909 44.7558 20.0497 45.9139 19.4475C47.072 18.8453 48.3806 18.5442 49.8398 18.5442C51.5074 18.5442 53.0245 18.9611 54.3911 19.7949C55.7808 20.6056 56.8694 21.7521 57.6569 23.2344C58.4444 24.7168 58.8381 26.4192 58.8381 28.3416C58.8381 30.264 58.4444 31.9895 57.6569 33.5182C56.8694 35.0237 55.7808 36.205 54.3911 37.062C53.0245 37.8958 51.5074 38.3127 49.8398 38.3127C48.3806 38.3127 47.0836 38.0232 45.9486 37.4441C44.8137 36.8419 43.8872 36.1007 43.1692 35.2206V47.1025H39.2086V18.8569H43.1692V21.671ZM54.808 28.3416C54.808 27.0214 54.53 25.8864 53.9742 24.9368C53.4414 23.964 52.7234 23.2344 51.8201 22.748C50.94 22.2385 49.9903 21.9837 48.9712 21.9837C47.9753 21.9837 47.0257 22.2385 46.1223 22.748C45.2422 23.2576 44.5242 23.9988 43.9683 24.9716C43.4356 25.9444 43.1692 27.0909 43.1692 28.4111C43.1692 29.7313 43.4356 30.8894 43.9683 31.8853C44.5242 32.8581 45.2422 33.5993 46.1223 34.1088C47.0257 34.6184 47.9753 34.8732 48.9712 34.8732C49.9903 34.8732 50.94 34.6184 51.8201 34.1088C52.7234 33.5761 53.4414 32.8118 53.9742 31.8158C54.53 30.8199 54.808 29.6618 54.808 28.3416ZM67.3755 22.0879V32.6844C67.3755 33.4024 67.5377 33.9235 67.8619 34.2478C68.2093 34.5489 68.7884 34.6995 69.599 34.6995H72.031V38H68.9042C67.1208 38 65.7542 37.5831 64.8046 36.7493C63.855 35.9155 63.3801 34.5605 63.3801 32.6844V22.0879H61.1219V18.8569H63.3801V14.0972H67.3755V18.8569H72.031V22.0879H67.3755ZM77.6965 16.3207C76.9785 16.3207 76.3763 16.0775 75.8899 15.5911C75.4035 15.1047 75.1603 14.5025 75.1603 13.7845C75.1603 13.0665 75.4035 12.4643 75.8899 11.9779C76.3763 11.4915 76.9785 11.2483 77.6965 11.2483C78.3913 11.2483 78.982 11.4915 79.4684 11.9779C79.9548 12.4643 80.198 13.0665 80.198 13.7845C80.198 14.5025 79.9548 15.1047 79.4684 15.5911C78.982 16.0775 78.3913 16.3207 77.6965 16.3207ZM79.6421 18.8569V38H75.6814V18.8569H79.6421Z"/>
</mask>
<path d="M43.1692 21.671C43.8409 20.7909 44.7558 20.0497 45.9139 19.4475C47.072 18.8453 48.3806 18.5442 49.8398 18.5442C51.5074 18.5442 53.0245 18.9611 54.3911 19.7949C55.7808 20.6056 56.8694 21.7521 57.6569 23.2344C58.4444 24.7168 58.8381 26.4192 58.8381 28.3416C58.8381 30.264 58.4444 31.9895 57.6569 33.5182C56.8694 35.0237 55.7808 36.205 54.3911 37.062C53.0245 37.8958 51.5074 38.3127 49.8398 38.3127C48.3806 38.3127 47.0836 38.0232 45.9486 37.4441C44.8137 36.8419 43.8872 36.1007 43.1692 35.2206V47.1025H39.2086V18.8569H43.1692V21.671ZM54.808 28.3416C54.808 27.0214 54.53 25.8864 53.9742 24.9368C53.4414 23.964 52.7234 23.2344 51.8201 22.748C50.94 22.2385 49.9903 21.9837 48.9712 21.9837C47.9753 21.9837 47.0257 22.2385 46.1223 22.748C45.2422 23.2576 44.5242 23.9988 43.9683 24.9716C43.4356 25.9444 43.1692 27.0909 43.1692 28.4111C43.1692 29.7313 43.4356 30.8894 43.9683 31.8853C44.5242 32.8581 45.2422 33.5993 46.1223 34.1088C47.0257 34.6184 47.9753 34.8732 48.9712 34.8732C49.9903 34.8732 50.94 34.6184 51.8201 34.1088C52.7234 33.5761 53.4414 32.8118 53.9742 31.8158C54.53 30.8199 54.808 29.6618 54.808 28.3416ZM67.3755 22.0879V32.6844C67.3755 33.4024 67.5377 33.9235 67.8619 34.2478C68.2093 34.5489 68.7884 34.6995 69.599 34.6995H72.031V38H68.9042C67.1208 38 65.7542 37.5831 64.8046 36.7493C63.855 35.9155 63.3801 34.5605 63.3801 32.6844V22.0879H61.1219V18.8569H63.3801V14.0972H67.3755V18.8569H72.031V22.0879H67.3755ZM77.6965 16.3207C76.9785 16.3207 76.3763 16.0775 75.8899 15.5911C75.4035 15.1047 75.1603 14.5025 75.1603 13.7845C75.1603 13.0665 75.4035 12.4643 75.8899 11.9779C76.3763 11.4915 76.9785 11.2483 77.6965 11.2483C78.3913 11.2483 78.982 11.4915 79.4684 11.9779C79.9548 12.4643 80.198 13.0665 80.198 13.7845C80.198 14.5025 79.9548 15.1047 79.4684 15.5911C78.982 16.0775 78.3913 16.3207 77.6965 16.3207ZM79.6421 18.8569V38H75.6814V18.8569H79.6421Z" fill="url(#paint53_linear_65_1218)"/>
<path d="M43.1692 21.671H42.9396V22.3503L43.3518 21.8103L43.1692 21.671ZM45.9139 19.4475L45.808 19.2438H45.808L45.9139 19.4475ZM54.3911 19.7949L54.2715 19.991L54.2754 19.9932L54.3911 19.7949ZM57.6569 23.2344L57.4541 23.3422L57.6569 23.2344ZM57.6569 33.5182L57.8603 33.6246L57.861 33.6234L57.6569 33.5182ZM54.3911 37.062L54.5107 37.2579L54.5116 37.2574L54.3911 37.062ZM45.9486 37.4441L45.841 37.647L45.8443 37.6486L45.9486 37.4441ZM43.1692 35.2206L43.3471 35.0755L42.9396 34.5759V35.2206H43.1692ZM43.1692 47.1025V47.3321H43.3988V47.1025H43.1692ZM39.2086 47.1025H38.979V47.3321H39.2086V47.1025ZM39.2086 18.8569V18.6273H38.979V18.8569H39.2086ZM43.1692 18.8569H43.3988V18.6273H43.1692V18.8569ZM53.9742 24.9368L53.7727 25.0471L53.776 25.0528L53.9742 24.9368ZM51.8201 22.748L51.705 22.9468L51.7113 22.9502L51.8201 22.748ZM46.1223 22.748L46.0095 22.5481L46.0073 22.5493L46.1223 22.748ZM43.9683 24.9716L43.7689 24.8576L43.7669 24.8613L43.9683 24.9716ZM43.9683 31.8853L43.7658 31.9937L43.769 31.9992L43.9683 31.8853ZM46.1223 34.1088L46.0073 34.3076L46.0095 34.3088L46.1223 34.1088ZM51.8201 34.1088L51.9352 34.3075L51.9368 34.3066L51.8201 34.1088ZM53.9742 31.8158L53.7736 31.7039L53.7717 31.7075L53.9742 31.8158ZM43.3518 21.8103C43.9996 20.9614 44.8864 20.2406 46.0198 19.6512L45.808 19.2438C44.6252 19.8588 43.6822 20.6204 42.9867 21.5317L43.3518 21.8103ZM46.0198 19.6512C47.1415 19.0679 48.4131 18.7738 49.8398 18.7738V18.3146C48.3481 18.3146 47.0025 18.6227 45.808 19.2438L46.0198 19.6512ZM49.8398 18.7738C51.4671 18.7738 52.9425 19.18 54.2715 19.9909L54.5107 19.5989C53.1066 18.7422 51.5478 18.3146 49.8398 18.3146V18.7738ZM54.2754 19.9932C55.6266 20.7814 56.6857 21.8958 57.4541 23.3422L57.8596 23.1267C57.053 21.6084 55.935 20.4297 54.5068 19.5966L54.2754 19.9932ZM57.4541 23.3422C58.2216 24.7868 58.6085 26.4512 58.6085 28.3416H59.0677C59.0677 26.3871 58.6672 24.6468 57.8596 23.1267L57.4541 23.3422ZM58.6085 28.3416C58.6085 30.2318 58.2216 31.9206 57.4528 33.4131L57.861 33.6234C58.6671 32.0585 59.0677 30.2962 59.0677 28.3416H58.6085ZM57.4534 33.4118C56.6842 34.8823 55.6236 36.0321 54.2706 36.8665L54.5116 37.2574C55.9379 36.3778 57.0545 35.1652 57.8603 33.6246L57.4534 33.4118ZM54.2715 36.866C52.9425 37.6769 51.4671 38.0831 49.8398 38.0831V38.5423C51.5478 38.5423 53.1066 38.1147 54.5107 37.2579L54.2715 36.866ZM49.8398 38.0831C48.4116 38.0831 47.1512 37.7999 46.053 37.2396L45.8443 37.6486C47.0159 38.2464 48.3496 38.5423 49.8398 38.5423V38.0831ZM46.0563 37.2413C44.9448 36.6516 44.0434 35.929 43.3471 35.0755L42.9913 35.3657C43.7311 36.2725 44.6826 37.0323 45.841 37.6469L46.0563 37.2413ZM42.9396 35.2206V47.1025H43.3988V35.2206H42.9396ZM43.1692 46.8729H39.2086V47.3321H43.1692V46.8729ZM39.4382 47.1025V18.8569H38.979V47.1025H39.4382ZM39.2086 19.0865H43.1692V18.6273H39.2086V19.0865ZM42.9396 18.8569V21.671H43.3988V18.8569H42.9396ZM55.0376 28.3416C55.0376 26.9888 54.7525 25.8121 54.1723 24.8208L53.776 25.0528C54.3075 25.9608 54.5784 27.054 54.5784 28.3416H55.0376ZM54.1755 24.8265C53.6233 23.8181 52.8745 23.055 51.929 22.5459L51.7113 22.9502C52.5723 23.4138 53.2596 24.1099 53.7728 25.0471L54.1755 24.8265ZM51.9352 22.5493C51.02 22.0195 50.0307 21.7541 48.9712 21.7541V22.2133C49.95 22.2133 50.86 22.4575 51.7051 22.9467L51.9352 22.5493ZM48.9712 21.7541C47.9341 21.7541 46.9458 22.0199 46.0095 22.5481L46.2352 22.948C47.1055 22.457 48.0165 22.2133 48.9712 22.2133V21.7541ZM46.0073 22.5493C45.0886 23.0812 44.3429 23.8533 43.769 24.8577L44.1677 25.0855C44.7055 24.1442 45.3958 23.434 46.2374 22.9467L46.0073 22.5493ZM43.7669 24.8613C43.2125 25.8738 42.9396 27.0596 42.9396 28.4111H43.3988C43.3988 27.1221 43.6587 26.0149 44.1697 25.0818L43.7669 24.8613ZM42.9396 28.4111C42.9396 29.7627 43.2125 30.9591 43.7659 31.9936L44.1708 31.777C43.6587 30.8196 43.3988 29.6999 43.3988 28.4111H42.9396ZM43.769 31.9992C44.3429 33.0036 45.0886 33.7756 46.0073 34.3075L46.2374 33.9101C45.3958 33.4229 44.7055 32.7127 44.1677 31.7714L43.769 31.9992ZM46.0095 34.3088C46.9458 34.837 47.9341 35.1028 48.9712 35.1028V34.6436C48.0165 34.6436 47.1055 34.3998 46.2352 33.9089L46.0095 34.3088ZM48.9712 35.1028C50.0307 35.1028 51.02 34.8374 51.9352 34.3075L51.7051 33.9101C50.86 34.3994 49.95 34.6436 48.9712 34.6436V35.1028ZM51.9368 34.3066C52.8791 33.7509 53.6256 32.9542 54.1766 31.9241L53.7717 31.7075C53.2573 32.6693 52.5677 33.4014 51.7035 33.9111L51.9368 34.3066ZM54.1746 31.9277C54.7524 30.8925 55.0376 29.6947 55.0376 28.3416H54.5784C54.5784 29.6289 54.3076 30.7472 53.7737 31.7039L54.1746 31.9277ZM67.3755 22.0879V21.8583H67.1459V22.0879H67.3755ZM67.8619 34.2478L67.6996 34.4102L67.7054 34.416L67.7116 34.4213L67.8619 34.2478ZM72.031 34.6995H72.2606V34.4699H72.031V34.6995ZM72.031 38V38.2296H72.2606V38H72.031ZM64.8046 36.7493L64.6531 36.9218L64.8046 36.7493ZM63.3801 22.0879H63.6097V21.8583H63.3801V22.0879ZM61.1219 22.0879H60.8923V22.3175H61.1219V22.0879ZM61.1219 18.8569V18.6273H60.8923V18.8569H61.1219ZM63.3801 18.8569V19.0865H63.6097V18.8569H63.3801ZM63.3801 14.0972V13.8676H63.1505V14.0972H63.3801ZM67.3755 14.0972H67.6051V13.8676H67.3755V14.0972ZM67.3755 18.8569H67.1459V19.0865H67.3755V18.8569ZM72.031 18.8569H72.2606V18.6273H72.031V18.8569ZM72.031 22.0879V22.3175H72.2606V22.0879H72.031ZM67.1459 22.0879V32.6844H67.6051V22.0879H67.1459ZM67.1459 32.6844C67.1459 33.4298 67.3133 34.0239 67.6996 34.4102L68.0243 34.0855C67.762 33.8232 67.6051 33.375 67.6051 32.6844H67.1459ZM67.7116 34.4213C68.1225 34.7775 68.7713 34.9291 69.599 34.9291V34.4699C68.8055 34.4699 68.2962 34.3203 68.0123 34.0743L67.7116 34.4213ZM69.599 34.9291H72.031V34.4699H69.599V34.9291ZM71.8014 34.6995V38H72.2606V34.6995H71.8014ZM72.031 37.7704H68.9042V38.2296H72.031V37.7704ZM68.9042 37.7704C67.1537 37.7704 65.8494 37.3611 64.9561 36.5767L64.6531 36.9218C65.659 37.8051 67.0878 38.2296 68.9042 38.2296V37.7704ZM64.9561 36.5767C64.0761 35.8041 63.6097 34.5269 63.6097 32.6844H63.1505C63.1505 34.5941 63.6338 36.0268 64.6531 36.9218L64.9561 36.5767ZM63.6097 32.6844V22.0879H63.1505V32.6844H63.6097ZM63.3801 21.8583H61.1219V22.3175H63.3801V21.8583ZM61.3515 22.0879V18.8569H60.8923V22.0879H61.3515ZM61.1219 19.0865H63.3801V18.6273H61.1219V19.0865ZM63.6097 18.8569V14.0972H63.1505V18.8569H63.6097ZM63.3801 14.3268H67.3755V13.8676H63.3801V14.3268ZM67.1459 14.0972V18.8569H67.6051V14.0972H67.1459ZM67.3755 19.0865H72.031V18.6273H67.3755V19.0865ZM71.8014 18.8569V22.0879H72.2606V18.8569H71.8014ZM72.031 21.8583H67.3755V22.3175H72.031V21.8583ZM75.8899 15.5911L76.0522 15.4287V15.4287L75.8899 15.5911ZM75.8899 11.9779L76.0522 12.1402L75.8899 11.9779ZM79.4684 11.9779L79.306 12.1402L79.4684 11.9779ZM79.4684 15.5911L79.306 15.4287V15.4287L79.4684 15.5911ZM79.6421 18.8569H79.8717V18.6273H79.6421V18.8569ZM79.6421 38V38.2296H79.8717V38H79.6421ZM75.6814 38H75.4518V38.2296H75.6814V38ZM75.6814 18.8569V18.6273H75.4518V18.8569H75.6814ZM77.6965 16.0911C77.0364 16.0911 76.4935 15.87 76.0522 15.4287L75.7275 15.7534C76.259 16.285 76.9206 16.5503 77.6965 16.5503V16.0911ZM76.0522 15.4287C75.611 14.9875 75.3899 14.4446 75.3899 13.7845H74.9307C74.9307 14.5604 75.196 15.2219 75.7275 15.7534L76.0522 15.4287ZM75.3899 13.7845C75.3899 13.1244 75.611 12.5815 76.0522 12.1402L75.7275 11.8155C75.196 12.347 74.9307 13.0085 74.9307 13.7845H75.3899ZM76.0522 12.1402C76.4935 11.6989 77.0364 11.4779 77.6965 11.4779V11.0187C76.9206 11.0187 76.259 11.284 75.7275 11.8155L76.0522 12.1402ZM77.6965 11.4779C78.3311 11.4779 78.8632 11.6974 79.306 12.1402L79.6307 11.8155C79.1008 11.2856 78.4515 11.0187 77.6965 11.0187V11.4779ZM79.306 12.1402C79.7473 12.5815 79.9684 13.1244 79.9684 13.7845H80.4276C80.4276 13.0085 80.1622 12.347 79.6307 11.8155L79.306 12.1402ZM79.9684 13.7845C79.9684 14.4446 79.7473 14.9875 79.306 15.4287L79.6307 15.7534C80.1622 15.2219 80.4276 14.5604 80.4276 13.7845H79.9684ZM79.306 15.4287C78.8632 15.8716 78.3311 16.0911 77.6965 16.0911V16.5503C78.4515 16.5503 79.1008 16.2834 79.6307 15.7534L79.306 15.4287ZM79.4125 18.8569V38H79.8717V18.8569H79.4125ZM79.6421 37.7704H75.6814V38.2296H79.6421V37.7704ZM75.911 38V18.8569H75.4518V38H75.911ZM75.6814 19.0865H79.6421V18.6273H75.6814V19.0865Z" fill="black" mask="url(#path-86-outside-5_65_1218)"/>
<mask id="path-88-outside-6_65_1218" maskUnits="userSpaceOnUse" x="89.9685" y="11" width="160" height="37" fill="black">
<rect fill="white" x="89.9685" y="11" width="160" height="37"/>
<path d="M107.131 33.0666H97.0212L95.2841 38H91.1498L99.8006 13.8192H104.387L113.038 38H108.868L107.131 33.0666ZM106.02 29.8355L102.094 18.6137L98.133 29.8355H106.02ZM126.457 18.5442C127.963 18.5442 129.306 18.8569 130.487 19.4822C131.692 20.1076 132.63 21.0341 133.302 22.2616C133.973 23.4892 134.309 24.9716 134.309 26.7087V38H130.383V27.2993C130.383 25.5853 129.955 24.2767 129.098 23.3734C128.241 22.4469 127.071 21.9837 125.589 21.9837C124.106 21.9837 122.925 22.4469 122.045 23.3734C121.188 24.2767 120.76 25.5853 120.76 27.2993V38H116.799V18.8569H120.76V21.0457C121.408 20.2582 122.23 19.6444 123.226 19.2043C124.245 18.7642 125.322 18.5442 126.457 18.5442ZM138.041 28.3416C138.041 26.4192 138.435 24.7168 139.222 23.2344C140.033 21.7521 141.121 20.6056 142.488 19.7949C143.878 18.9611 145.406 18.5442 147.074 18.5442C148.58 18.5442 149.888 18.8453 151 19.4475C152.135 20.0265 153.038 20.7561 153.71 21.6363V18.8569H157.705V38H153.71V35.1511C153.038 36.0544 152.123 36.8072 150.965 37.4094C149.807 38.0116 148.487 38.3127 147.005 38.3127C145.36 38.3127 143.855 37.8958 142.488 37.062C141.121 36.205 140.033 35.0237 139.222 33.5182C138.435 31.9895 138.041 30.264 138.041 28.3416ZM153.71 28.4111C153.71 27.0909 153.432 25.9444 152.876 24.9716C152.343 23.9988 151.637 23.2576 150.757 22.748C149.877 22.2385 148.927 21.9837 147.908 21.9837C146.889 21.9837 145.939 22.2385 145.059 22.748C144.179 23.2344 143.461 23.964 142.905 24.9368C142.372 25.8864 142.106 27.0214 142.106 28.3416C142.106 29.6618 142.372 30.8199 142.905 31.8158C143.461 32.8118 144.179 33.5761 145.059 34.1088C145.962 34.6184 146.912 34.8732 147.908 34.8732C148.927 34.8732 149.877 34.6184 150.757 34.1088C151.637 33.5993 152.343 32.8581 152.876 31.8853C153.432 30.8894 153.71 29.7313 153.71 28.4111ZM166.868 12.2906V38H162.907V12.2906H166.868ZM189.3 18.8569L177.557 46.9983H173.458L177.349 37.6873L169.81 18.8569H174.222L179.607 33.4487L185.201 18.8569H189.3ZM196.91 22.0879V32.6844C196.91 33.4024 197.072 33.9235 197.396 34.2478C197.744 34.5489 198.323 34.6995 199.133 34.6995H201.565V38H198.439C196.655 38 195.289 37.5831 194.339 36.7493C193.389 35.9155 192.915 34.5605 192.915 32.6844V22.0879H190.656V18.8569H192.915V14.0972H196.91V18.8569H201.565V22.0879H196.91ZM207.231 16.3207C206.513 16.3207 205.911 16.0775 205.424 15.5911C204.938 15.1047 204.695 14.5025 204.695 13.7845C204.695 13.0665 204.938 12.4643 205.424 11.9779C205.911 11.4915 206.513 11.2483 207.231 11.2483C207.926 11.2483 208.516 11.4915 209.003 11.9779C209.489 12.4643 209.732 13.0665 209.732 13.7845C209.732 14.5025 209.489 15.1047 209.003 15.5911C208.516 16.0775 207.926 16.3207 207.231 16.3207ZM209.177 18.8569V38H205.216V18.8569H209.177ZM213.056 28.4111C213.056 26.4423 213.45 24.7168 214.238 23.2344C215.048 21.7289 216.16 20.5708 217.573 19.7602C218.986 18.9495 220.607 18.5442 222.437 18.5442C224.753 18.5442 226.664 19.1001 228.169 20.2118C229.698 21.3004 230.729 22.8639 231.261 24.9021H226.988C226.641 23.9525 226.085 23.2113 225.32 22.6786C224.556 22.1458 223.595 21.8795 222.437 21.8795C220.815 21.8795 219.518 22.4585 218.546 23.6166C217.596 24.7515 217.121 26.3497 217.121 28.4111C217.121 30.4725 217.596 32.0822 218.546 33.2403C219.518 34.3984 220.815 34.9774 222.437 34.9774C224.73 34.9774 226.247 33.9699 226.988 31.9548H231.261C230.705 33.9004 229.663 35.4522 228.135 36.6103C226.606 37.7452 224.707 38.3127 222.437 38.3127C220.607 38.3127 218.986 37.9074 217.573 37.0967C216.16 36.2629 215.048 35.1048 214.238 33.6224C213.45 32.1169 213.056 30.3798 213.056 28.4111ZM242.157 38.3127C240.651 38.3127 239.296 38.0463 238.092 37.5136C236.911 36.9577 235.973 36.2166 235.278 35.2901C234.583 34.3405 234.212 33.2866 234.166 32.1285H238.266C238.335 32.9392 238.717 33.6224 239.412 34.1783C240.13 34.711 241.022 34.9774 242.087 34.9774C243.199 34.9774 244.056 34.7689 244.658 34.352C245.284 33.912 245.596 33.3561 245.596 32.6844C245.596 31.9664 245.249 31.4337 244.554 31.0862C243.882 30.7388 242.805 30.3567 241.323 29.9397C239.887 29.546 238.717 29.1638 237.814 28.7932C236.911 28.4227 236.123 27.8552 235.452 27.0909C234.803 26.3265 234.479 25.319 234.479 24.0683C234.479 23.0491 234.78 22.1227 235.382 21.2889C235.984 20.4319 236.841 19.7602 237.953 19.2738C239.088 18.7874 240.385 18.5442 241.844 18.5442C244.021 18.5442 245.77 19.1001 247.09 20.2118C248.434 21.3004 249.152 22.7944 249.244 24.6936H245.284C245.214 23.8366 244.867 23.1534 244.241 22.6438C243.616 22.1343 242.771 21.8795 241.705 21.8795C240.663 21.8795 239.864 22.0764 239.308 22.4701C238.752 22.8639 238.474 23.385 238.474 24.0335C238.474 24.5431 238.66 24.9716 239.03 25.319C239.401 25.6664 239.852 25.9444 240.385 26.1528C240.918 26.3381 241.705 26.5813 242.748 26.8824C244.137 27.253 245.272 27.6352 246.152 28.0289C247.056 28.3995 247.832 28.9554 248.48 29.6965C249.129 30.4377 249.464 31.4221 249.488 32.6497C249.488 33.7383 249.186 34.711 248.584 35.568C247.982 36.425 247.125 37.0967 246.013 37.5831C244.925 38.0695 243.639 38.3127 242.157 38.3127Z"/>
</mask>
<path d="M107.131 33.0666H97.0212L95.2841 38H91.1498L99.8006 13.8192H104.387L113.038 38H108.868L107.131 33.0666ZM106.02 29.8355L102.094 18.6137L98.133 29.8355H106.02ZM126.457 18.5442C127.963 18.5442 129.306 18.8569 130.487 19.4822C131.692 20.1076 132.63 21.0341 133.302 22.2616C133.973 23.4892 134.309 24.9716 134.309 26.7087V38H130.383V27.2993C130.383 25.5853 129.955 24.2767 129.098 23.3734C128.241 22.4469 127.071 21.9837 125.589 21.9837C124.106 21.9837 122.925 22.4469 122.045 23.3734C121.188 24.2767 120.76 25.5853 120.76 27.2993V38H116.799V18.8569H120.76V21.0457C121.408 20.2582 122.23 19.6444 123.226 19.2043C124.245 18.7642 125.322 18.5442 126.457 18.5442ZM138.041 28.3416C138.041 26.4192 138.435 24.7168 139.222 23.2344C140.033 21.7521 141.121 20.6056 142.488 19.7949C143.878 18.9611 145.406 18.5442 147.074 18.5442C148.58 18.5442 149.888 18.8453 151 19.4475C152.135 20.0265 153.038 20.7561 153.71 21.6363V18.8569H157.705V38H153.71V35.1511C153.038 36.0544 152.123 36.8072 150.965 37.4094C149.807 38.0116 148.487 38.3127 147.005 38.3127C145.36 38.3127 143.855 37.8958 142.488 37.062C141.121 36.205 140.033 35.0237 139.222 33.5182C138.435 31.9895 138.041 30.264 138.041 28.3416ZM153.71 28.4111C153.71 27.0909 153.432 25.9444 152.876 24.9716C152.343 23.9988 151.637 23.2576 150.757 22.748C149.877 22.2385 148.927 21.9837 147.908 21.9837C146.889 21.9837 145.939 22.2385 145.059 22.748C144.179 23.2344 143.461 23.964 142.905 24.9368C142.372 25.8864 142.106 27.0214 142.106 28.3416C142.106 29.6618 142.372 30.8199 142.905 31.8158C143.461 32.8118 144.179 33.5761 145.059 34.1088C145.962 34.6184 146.912 34.8732 147.908 34.8732C148.927 34.8732 149.877 34.6184 150.757 34.1088C151.637 33.5993 152.343 32.8581 152.876 31.8853C153.432 30.8894 153.71 29.7313 153.71 28.4111ZM166.868 12.2906V38H162.907V12.2906H166.868ZM189.3 18.8569L177.557 46.9983H173.458L177.349 37.6873L169.81 18.8569H174.222L179.607 33.4487L185.201 18.8569H189.3ZM196.91 22.0879V32.6844C196.91 33.4024 197.072 33.9235 197.396 34.2478C197.744 34.5489 198.323 34.6995 199.133 34.6995H201.565V38H198.439C196.655 38 195.289 37.5831 194.339 36.7493C193.389 35.9155 192.915 34.5605 192.915 32.6844V22.0879H190.656V18.8569H192.915V14.0972H196.91V18.8569H201.565V22.0879H196.91ZM207.231 16.3207C206.513 16.3207 205.911 16.0775 205.424 15.5911C204.938 15.1047 204.695 14.5025 204.695 13.7845C204.695 13.0665 204.938 12.4643 205.424 11.9779C205.911 11.4915 206.513 11.2483 207.231 11.2483C207.926 11.2483 208.516 11.4915 209.003 11.9779C209.489 12.4643 209.732 13.0665 209.732 13.7845C209.732 14.5025 209.489 15.1047 209.003 15.5911C208.516 16.0775 207.926 16.3207 207.231 16.3207ZM209.177 18.8569V38H205.216V18.8569H209.177ZM213.056 28.4111C213.056 26.4423 213.45 24.7168 214.238 23.2344C215.048 21.7289 216.16 20.5708 217.573 19.7602C218.986 18.9495 220.607 18.5442 222.437 18.5442C224.753 18.5442 226.664 19.1001 228.169 20.2118C229.698 21.3004 230.729 22.8639 231.261 24.9021H226.988C226.641 23.9525 226.085 23.2113 225.32 22.6786C224.556 22.1458 223.595 21.8795 222.437 21.8795C220.815 21.8795 219.518 22.4585 218.546 23.6166C217.596 24.7515 217.121 26.3497 217.121 28.4111C217.121 30.4725 217.596 32.0822 218.546 33.2403C219.518 34.3984 220.815 34.9774 222.437 34.9774C224.73 34.9774 226.247 33.9699 226.988 31.9548H231.261C230.705 33.9004 229.663 35.4522 228.135 36.6103C226.606 37.7452 224.707 38.3127 222.437 38.3127C220.607 38.3127 218.986 37.9074 217.573 37.0967C216.16 36.2629 215.048 35.1048 214.238 33.6224C213.45 32.1169 213.056 30.3798 213.056 28.4111ZM242.157 38.3127C240.651 38.3127 239.296 38.0463 238.092 37.5136C236.911 36.9577 235.973 36.2166 235.278 35.2901C234.583 34.3405 234.212 33.2866 234.166 32.1285H238.266C238.335 32.9392 238.717 33.6224 239.412 34.1783C240.13 34.711 241.022 34.9774 242.087 34.9774C243.199 34.9774 244.056 34.7689 244.658 34.352C245.284 33.912 245.596 33.3561 245.596 32.6844C245.596 31.9664 245.249 31.4337 244.554 31.0862C243.882 30.7388 242.805 30.3567 241.323 29.9397C239.887 29.546 238.717 29.1638 237.814 28.7932C236.911 28.4227 236.123 27.8552 235.452 27.0909C234.803 26.3265 234.479 25.319 234.479 24.0683C234.479 23.0491 234.78 22.1227 235.382 21.2889C235.984 20.4319 236.841 19.7602 237.953 19.2738C239.088 18.7874 240.385 18.5442 241.844 18.5442C244.021 18.5442 245.77 19.1001 247.09 20.2118C248.434 21.3004 249.152 22.7944 249.244 24.6936H245.284C245.214 23.8366 244.867 23.1534 244.241 22.6438C243.616 22.1343 242.771 21.8795 241.705 21.8795C240.663 21.8795 239.864 22.0764 239.308 22.4701C238.752 22.8639 238.474 23.385 238.474 24.0335C238.474 24.5431 238.66 24.9716 239.03 25.319C239.401 25.6664 239.852 25.9444 240.385 26.1528C240.918 26.3381 241.705 26.5813 242.748 26.8824C244.137 27.253 245.272 27.6352 246.152 28.0289C247.056 28.3995 247.832 28.9554 248.48 29.6965C249.129 30.4377 249.464 31.4221 249.488 32.6497C249.488 33.7383 249.186 34.711 248.584 35.568C247.982 36.425 247.125 37.0967 246.013 37.5831C244.925 38.0695 243.639 38.3127 242.157 38.3127Z" fill="url(#paint54_linear_65_1218)"/>
<path d="M107.131 33.0666L107.348 32.9903L107.294 32.837H107.131V33.0666ZM97.0212 33.0666V32.837H96.8587L96.8047 32.9903L97.0212 33.0666ZM95.2841 38V38.2296H95.4467L95.5007 38.0763L95.2841 38ZM91.1498 38L90.9336 37.9227L90.8238 38.2296H91.1498V38ZM99.8006 13.8192V13.5896H99.6389L99.5845 13.7419L99.8006 13.8192ZM104.387 13.8192L104.603 13.7419L104.548 13.5896H104.387V13.8192ZM113.038 38V38.2296H113.364L113.254 37.9227L113.038 38ZM108.868 38L108.652 38.0763L108.706 38.2296H108.868V38ZM106.02 29.8355V30.0651H106.343L106.236 29.7597L106.02 29.8355ZM102.094 18.6137L102.31 18.5379L102.095 17.9211L101.877 18.5373L102.094 18.6137ZM98.133 29.8355L97.9165 29.7591L97.8085 30.0651H98.133V29.8355ZM107.131 32.837H97.0212V33.2962H107.131V32.837ZM96.8047 32.9903L95.0675 37.9237L95.5007 38.0763L97.2378 33.1428L96.8047 32.9903ZM95.2841 37.7704H91.1498V38.2296H95.2841V37.7704ZM91.3659 38.0773L100.017 13.8966L99.5845 13.7419L90.9336 37.9227L91.3659 38.0773ZM99.8006 14.0488H104.387V13.5896H99.8006V14.0488ZM104.17 13.8966L112.821 38.0773L113.254 37.9227L104.603 13.7419L104.17 13.8966ZM113.038 37.7704H108.868V38.2296H113.038V37.7704ZM109.085 37.9237L107.348 32.9903L106.915 33.1428L108.652 38.0763L109.085 37.9237ZM106.236 29.7597L102.31 18.5379L101.877 18.6895L105.803 29.9113L106.236 29.7597ZM101.877 18.5373L97.9165 29.7591L98.3495 29.9119L102.31 18.6901L101.877 18.5373ZM98.133 30.0651H106.02V29.6059H98.133V30.0651ZM130.487 19.4822L130.38 19.6852L130.382 19.686L130.487 19.4822ZM133.302 22.2616L133.1 22.3719V22.3719L133.302 22.2616ZM134.309 38V38.2296H134.539V38H134.309ZM130.383 38H130.154V38.2296H130.383V38ZM129.098 23.3734L128.929 23.5293L128.931 23.5314L129.098 23.3734ZM122.045 23.3734L121.879 23.2153L121.878 23.2154L122.045 23.3734ZM120.76 38V38.2296H120.989V38H120.76ZM116.799 38H116.569V38.2296H116.799V38ZM116.799 18.8569V18.6273H116.569V18.8569H116.799ZM120.76 18.8569H120.989V18.6273H120.76V18.8569ZM120.76 21.0457H120.53V21.6856L120.937 21.1916L120.76 21.0457ZM123.226 19.2043L123.135 18.9935L123.134 18.9943L123.226 19.2043ZM126.457 18.7738C127.93 18.7738 129.236 19.0794 130.38 19.6852L130.595 19.2793C129.377 18.6343 127.996 18.3146 126.457 18.3146V18.7738ZM130.382 19.686C131.544 20.2897 132.45 21.183 133.1 22.3719L133.503 22.1514C132.81 20.8852 131.839 19.9255 130.593 19.2785L130.382 19.686ZM133.1 22.3719C133.749 23.5584 134.08 25.0009 134.08 26.7087H134.539C134.539 24.9422 134.197 23.42 133.503 22.1514L133.1 22.3719ZM134.08 26.7087V38H134.539V26.7087H134.08ZM134.309 37.7704H130.383V38.2296H134.309V37.7704ZM130.613 38V27.2993H130.154V38H130.613ZM130.613 27.2993C130.613 25.549 130.175 24.1752 129.264 23.2154L128.931 23.5314C129.735 24.3782 130.154 25.6217 130.154 27.2993H130.613ZM129.266 23.2175C128.358 22.2358 127.123 21.7541 125.589 21.7541V22.2133C127.019 22.2133 128.123 22.6581 128.929 23.5293L129.266 23.2175ZM125.589 21.7541C124.054 21.7541 122.809 22.2358 121.879 23.2153L122.212 23.5315C123.041 22.6581 124.158 22.2133 125.589 22.2133V21.7541ZM121.878 23.2154C120.968 24.1752 120.53 25.549 120.53 27.2993H120.989C120.989 25.6217 121.408 24.3782 122.212 23.5314L121.878 23.2154ZM120.53 27.2993V38H120.989V27.2993H120.53ZM120.76 37.7704H116.799V38.2296H120.76V37.7704ZM117.029 38V18.8569H116.569V38H117.029ZM116.799 19.0865H120.76V18.6273H116.799V19.0865ZM120.53 18.8569V21.0457H120.989V18.8569H120.53ZM120.937 21.1916C121.561 20.4336 122.354 19.8409 123.319 19.4143L123.134 18.9943C122.107 19.4478 121.255 20.0827 120.582 20.8997L120.937 21.1916ZM123.317 19.4151C124.307 18.9877 125.353 18.7738 126.457 18.7738V18.3146C125.292 18.3146 124.184 18.5408 123.135 18.9935L123.317 19.4151ZM139.222 23.2344L139.021 23.1243L139.019 23.1267L139.222 23.2344ZM142.488 19.7949L142.605 19.9924L142.606 19.9918L142.488 19.7949ZM151 19.4475L150.891 19.6494L150.896 19.652L151 19.4475ZM153.71 21.6363L153.527 21.7756L153.939 22.3156V21.6363H153.71ZM153.71 18.8569V18.6273H153.48V18.8569H153.71ZM157.705 18.8569H157.935V18.6273H157.705V18.8569ZM157.705 38V38.2296H157.935V38H157.705ZM153.71 38H153.48V38.2296H153.71V38ZM153.71 35.1511H153.939V34.4576L153.526 35.0141L153.71 35.1511ZM150.965 37.4094L150.859 37.2057L150.965 37.4094ZM142.488 37.062L142.366 37.2565L142.368 37.2579L142.488 37.062ZM139.222 33.5182L139.018 33.6234L139.02 33.6271L139.222 33.5182ZM152.876 24.9716L152.675 25.0819L152.677 25.0855L152.876 24.9716ZM150.757 22.748L150.642 22.9467L150.757 22.748ZM145.059 22.748L145.17 22.949L145.174 22.9467L145.059 22.748ZM142.905 24.9368L142.706 24.8229L142.705 24.8245L142.905 24.9368ZM142.905 31.8158L142.702 31.9241L142.704 31.9277L142.905 31.8158ZM145.059 34.1088L144.94 34.3054L144.946 34.3088L145.059 34.1088ZM150.757 34.1088L150.872 34.3075L150.757 34.1088ZM152.876 31.8853L152.676 31.7734L152.675 31.775L152.876 31.8853ZM138.271 28.3416C138.271 26.4512 138.658 24.7868 139.425 23.3422L139.019 23.1267C138.212 24.6468 137.811 26.3871 137.811 28.3416H138.271ZM139.424 23.3446C140.216 21.896 141.276 20.7807 142.605 19.9924L142.371 19.5975C140.967 20.4305 139.85 21.6082 139.021 23.1243L139.424 23.3446ZM142.606 19.9918C143.959 19.18 145.447 18.7738 147.074 18.7738V18.3146C145.366 18.3146 143.796 18.7422 142.37 19.5981L142.606 19.9918ZM147.074 18.7738C148.549 18.7738 149.818 19.0685 150.891 19.6494L151.109 19.2456C149.958 18.6221 148.61 18.3146 147.074 18.3146V18.7738ZM150.896 19.652C152.005 20.2178 152.879 20.9266 153.527 21.7756L153.892 21.497C153.197 20.5857 152.265 19.8353 151.104 19.243L150.896 19.652ZM153.939 21.6363V18.8569H153.48V21.6363H153.939ZM153.71 19.0865H157.705V18.6273H153.71V19.0865ZM157.476 18.8569V38H157.935V18.8569H157.476ZM157.705 37.7704H153.71V38.2296H157.705V37.7704ZM153.939 38V35.1511H153.48V38H153.939ZM153.526 35.0141C152.878 35.8854 151.991 36.6169 150.859 37.2057L151.071 37.6131C152.255 36.9974 153.199 36.2234 153.894 35.2881L153.526 35.0141ZM150.859 37.2057C149.738 37.7887 148.455 38.0831 147.005 38.0831V38.5423C148.519 38.5423 149.876 38.2345 151.071 37.6131L150.859 37.2057ZM147.005 38.0831C145.401 38.0831 143.937 37.6772 142.608 36.866L142.368 37.2579C143.772 38.1144 145.319 38.5423 147.005 38.5423V38.0831ZM142.61 36.8674C141.279 36.0329 140.217 34.882 139.424 33.4094L139.02 33.6271C139.848 35.1654 140.964 36.3771 142.366 37.2565L142.61 36.8674ZM139.426 33.4131C138.657 31.9206 138.271 30.2318 138.271 28.3416H137.811C137.811 30.2962 138.212 32.0585 139.018 33.6234L139.426 33.4131ZM153.939 28.4111C153.939 27.0581 153.654 25.8709 153.075 24.8577L152.677 25.0855C153.209 26.0178 153.48 27.1236 153.48 28.4111H153.939ZM153.077 24.8613C152.526 23.8551 151.792 23.0818 150.872 22.5493L150.642 22.9467C151.482 23.4334 152.16 24.1424 152.675 25.0818L153.077 24.8613ZM150.872 22.5493C149.957 22.0195 148.967 21.7541 147.908 21.7541V22.2133C148.887 22.2133 149.797 22.4575 150.642 22.9467L150.872 22.5493ZM147.908 21.7541C146.848 21.7541 145.859 22.0195 144.944 22.5493L145.174 22.9467C146.019 22.4575 146.929 22.2133 147.908 22.2133V21.7541ZM144.948 22.5471C144.027 23.0561 143.28 23.8179 142.706 24.8229L143.104 25.0507C143.642 24.1102 144.331 23.4128 145.17 22.949L144.948 22.5471ZM142.705 24.8245C142.149 25.815 141.876 26.9904 141.876 28.3416H142.335C142.335 27.0524 142.595 25.9579 143.105 25.0492L142.705 24.8245ZM141.876 28.3416C141.876 29.6932 142.149 30.8896 142.702 31.9241L143.107 31.7075C142.595 30.7501 142.335 29.6304 142.335 28.3416H141.876ZM142.704 31.9277C143.278 32.9546 144.022 33.7497 144.94 34.3053L145.178 33.9124C144.335 33.4025 143.644 32.669 143.105 31.7039L142.704 31.9277ZM144.946 34.3088C145.882 34.837 146.871 35.1028 147.908 35.1028V34.6436C146.953 34.6436 146.042 34.3998 145.172 33.9089L144.946 34.3088ZM147.908 35.1028C148.967 35.1028 149.957 34.8374 150.872 34.3075L150.642 33.9101C149.797 34.3994 148.887 34.6436 147.908 34.6436V35.1028ZM150.872 34.3075C151.792 33.7751 152.526 33.0018 153.077 31.9956L152.675 31.775C152.16 32.7145 151.482 33.4235 150.642 33.9101L150.872 34.3075ZM153.077 31.9972C153.654 30.962 153.939 29.7642 153.939 28.4111H153.48C153.48 29.6983 153.21 30.8167 152.676 31.7734L153.077 31.9972ZM166.868 12.2906H167.098V12.061H166.868V12.2906ZM166.868 38V38.2296H167.098V38H166.868ZM162.907 38H162.678V38.2296H162.907V38ZM162.907 12.2906V12.061H162.678V12.2906H162.907ZM166.638 12.2906V38H167.098V12.2906H166.638ZM166.868 37.7704H162.907V38.2296H166.868V37.7704ZM163.137 38V12.2906H162.678V38H163.137ZM162.907 12.5201H166.868V12.061H162.907V12.5201ZM189.3 18.8569L189.512 18.9453L189.645 18.6273H189.3V18.8569ZM177.557 46.9983V47.2279H177.71L177.769 47.0867L177.557 46.9983ZM173.458 46.9983L173.246 46.9098L173.113 47.2279H173.458V46.9983ZM177.349 37.6873L177.561 37.7758L177.597 37.6892L177.562 37.602L177.349 37.6873ZM169.81 18.8569V18.6273H169.471L169.597 18.9422L169.81 18.8569ZM174.222 18.8569L174.437 18.7774L174.382 18.6273H174.222V18.8569ZM179.607 33.4487L179.392 33.5282L179.603 34.1008L179.822 33.5309L179.607 33.4487ZM185.201 18.8569V18.6273H185.043L184.986 18.7747L185.201 18.8569ZM189.088 18.7685L177.345 46.9099L177.769 47.0867L189.512 18.9453L189.088 18.7685ZM177.557 46.7687H173.458V47.2279H177.557V46.7687ZM173.67 47.0868L177.561 37.7758L177.137 37.5988L173.246 46.9098L173.67 47.0868ZM177.562 37.602L170.023 18.7715L169.597 18.9422L177.136 37.7727L177.562 37.602ZM169.81 19.0865H174.222V18.6273H169.81V19.0865ZM174.007 18.9364L179.392 33.5282L179.823 33.3692L174.437 18.7774L174.007 18.9364ZM179.822 33.5309L185.415 18.9391L184.986 18.7747L179.393 33.3666L179.822 33.5309ZM185.201 19.0865H189.3V18.6273H185.201V19.0865ZM196.91 22.0879V21.8583H196.68V22.0879H196.91ZM197.396 34.2478L197.234 34.4102L197.24 34.416L197.246 34.4213L197.396 34.2478ZM201.565 34.6995H201.795V34.4699H201.565V34.6995ZM201.565 38V38.2296H201.795V38H201.565ZM194.339 36.7493L194.188 36.9218L194.339 36.7493ZM192.915 22.0879H193.144V21.8583H192.915V22.0879ZM190.656 22.0879H190.427V22.3175H190.656V22.0879ZM190.656 18.8569V18.6273H190.427V18.8569H190.656ZM192.915 18.8569V19.0865H193.144V18.8569H192.915ZM192.915 14.0972V13.8676H192.685V14.0972H192.915ZM196.91 14.0972H197.14V13.8676H196.91V14.0972ZM196.91 18.8569H196.68V19.0865H196.91V18.8569ZM201.565 18.8569H201.795V18.6273H201.565V18.8569ZM201.565 22.0879V22.3175H201.795V22.0879H201.565ZM196.68 22.0879V32.6844H197.14V22.0879H196.68ZM196.68 32.6844C196.68 33.4298 196.848 34.0239 197.234 34.4102L197.559 34.0855C197.296 33.8232 197.14 33.375 197.14 32.6844H196.68ZM197.246 34.4213C197.657 34.7775 198.306 34.9291 199.133 34.9291V34.4699C198.34 34.4699 197.831 34.3203 197.547 34.0743L197.246 34.4213ZM199.133 34.9291H201.565V34.4699H199.133V34.9291ZM201.336 34.6995V38H201.795V34.6995H201.336ZM201.565 37.7704H198.439V38.2296H201.565V37.7704ZM198.439 37.7704C196.688 37.7704 195.384 37.3611 194.491 36.5767L194.188 36.9218C195.193 37.8051 196.622 38.2296 198.439 38.2296V37.7704ZM194.491 36.5767C193.611 35.8041 193.144 34.5269 193.144 32.6844H192.685C192.685 34.5941 193.168 36.0268 194.188 36.9218L194.491 36.5767ZM193.144 32.6844V22.0879H192.685V32.6844H193.144ZM192.915 21.8583H190.656V22.3175H192.915V21.8583ZM190.886 22.0879V18.8569H190.427V22.0879H190.886ZM190.656 19.0865H192.915V18.6273H190.656V19.0865ZM193.144 18.8569V14.0972H192.685V18.8569H193.144ZM192.915 14.3268H196.91V13.8676H192.915V14.3268ZM196.68 14.0972V18.8569H197.14V14.0972H196.68ZM196.91 19.0865H201.565V18.6273H196.91V19.0865ZM201.336 18.8569V22.0879H201.795V18.8569H201.336ZM201.565 21.8583H196.91V22.3175H201.565V21.8583ZM205.424 15.5911L205.587 15.4287V15.4287L205.424 15.5911ZM205.424 11.9779L205.587 12.1402L205.424 11.9779ZM209.003 11.9779L208.84 12.1402L209.003 11.9779ZM209.003 15.5911L208.84 15.4287V15.4287L209.003 15.5911ZM209.177 18.8569H209.406V18.6273H209.177V18.8569ZM209.177 38V38.2296H209.406V38H209.177ZM205.216 38H204.986V38.2296H205.216V38ZM205.216 18.8569V18.6273H204.986V18.8569H205.216ZM207.231 16.0911C206.571 16.0911 206.028 15.87 205.587 15.4287L205.262 15.7534C205.793 16.285 206.455 16.5503 207.231 16.5503V16.0911ZM205.587 15.4287C205.145 14.9875 204.924 14.4446 204.924 13.7845H204.465C204.465 14.5604 204.73 15.2219 205.262 15.7534L205.587 15.4287ZM204.924 13.7845C204.924 13.1244 205.145 12.5815 205.587 12.1402L205.262 11.8155C204.73 12.347 204.465 13.0085 204.465 13.7845H204.924ZM205.587 12.1402C206.028 11.6989 206.571 11.4779 207.231 11.4779V11.0187C206.455 11.0187 205.793 11.284 205.262 11.8155L205.587 12.1402ZM207.231 11.4779C207.866 11.4779 208.398 11.6974 208.84 12.1402L209.165 11.8155C208.635 11.2856 207.986 11.0187 207.231 11.0187V11.4779ZM208.84 12.1402C209.282 12.5815 209.503 13.1244 209.503 13.7845H209.962C209.962 13.0085 209.697 12.347 209.165 11.8155L208.84 12.1402ZM209.503 13.7845C209.503 14.4446 209.282 14.9875 208.84 15.4287L209.165 15.7534C209.697 15.2219 209.962 14.5604 209.962 13.7845H209.503ZM208.84 15.4287C208.398 15.8716 207.866 16.0911 207.231 16.0911V16.5503C207.986 16.5503 208.635 16.2834 209.165 15.7534L208.84 15.4287ZM208.947 18.8569V38H209.406V18.8569H208.947ZM209.177 37.7704H205.216V38.2296H209.177V37.7704ZM205.445 38V18.8569H204.986V38H205.445ZM205.216 19.0865H209.177V18.6273H205.216V19.0865ZM214.238 23.2344L214.035 23.1256L214.035 23.1267L214.238 23.2344ZM217.573 19.7602L217.459 19.561V19.561L217.573 19.7602ZM228.169 20.2118L228.033 20.3966L228.036 20.3989L228.169 20.2118ZM231.261 24.9021V25.1317H231.559L231.483 24.844L231.261 24.9021ZM226.988 24.9021L226.772 24.981L226.828 25.1317H226.988V24.9021ZM218.546 23.6166L218.37 23.4689L218.37 23.4693L218.546 23.6166ZM218.546 33.2403L218.368 33.3859L218.37 33.388L218.546 33.2403ZM226.988 31.9548V31.7252H226.828L226.773 31.8755L226.988 31.9548ZM231.261 31.9548L231.482 32.0179L231.566 31.7252H231.261V31.9548ZM228.135 36.6103L228.271 36.7947L228.273 36.7933L228.135 36.6103ZM217.573 37.0967L217.456 37.2944L217.459 37.2958L217.573 37.0967ZM214.238 33.6224L214.034 33.7289L214.036 33.7326L214.238 33.6224ZM213.286 28.4111C213.286 26.4734 213.673 24.786 214.44 23.3422L214.035 23.1267C213.227 24.6475 212.827 26.4113 212.827 28.4111H213.286ZM214.44 23.3433C215.231 21.8735 216.313 20.7476 217.687 19.9593L217.459 19.561C216.007 20.3941 214.865 21.5843 214.035 23.1256L214.44 23.3433ZM217.687 19.9593C219.061 19.171 220.642 18.7738 222.437 18.7738V18.3146C220.572 18.3146 218.91 18.7281 217.459 19.561L217.687 19.9593ZM222.437 18.7738C224.716 18.7738 226.575 19.3203 228.033 20.3965L228.306 20.0271C226.752 18.8799 224.79 18.3146 222.437 18.3146V18.7738ZM228.036 20.3989C229.516 21.4524 230.518 22.9672 231.039 24.9601L231.483 24.844C230.939 22.7605 229.88 21.1485 228.302 20.0248L228.036 20.3989ZM231.261 24.6725H226.988V25.1317H231.261V24.6725ZM227.204 24.8232C226.841 23.8333 226.258 23.0522 225.452 22.4902L225.189 22.8669C225.911 23.3703 226.44 24.0716 226.772 24.981L227.204 24.8232ZM225.452 22.4902C224.64 21.9247 223.63 21.6499 222.437 21.6499V22.1091C223.559 22.1091 224.472 22.3669 225.189 22.8669L225.452 22.4902ZM222.437 21.6499C220.753 21.6499 219.39 22.2548 218.37 23.4689L218.721 23.7643C219.647 22.6622 220.878 22.1091 222.437 22.1091V21.6499ZM218.37 23.4693C217.374 24.6592 216.892 26.3168 216.892 28.4111H217.351C217.351 26.3826 217.818 24.8439 218.722 23.7639L218.37 23.4693ZM216.892 28.4111C216.892 30.5057 217.374 32.1736 218.368 33.3859L218.723 33.0947C217.818 31.9908 217.351 30.4392 217.351 28.4111H216.892ZM218.37 33.388C219.39 34.6021 220.753 35.207 222.437 35.207V34.7478C220.878 34.7478 219.647 34.1946 218.721 33.0926L218.37 33.388ZM222.437 35.207C223.617 35.207 224.616 34.9475 225.421 34.413C226.227 33.8777 226.819 33.0789 227.204 32.0341L226.773 31.8755C226.416 32.8457 225.878 33.5583 225.167 34.0305C224.455 34.5035 223.55 34.7478 222.437 34.7478V35.207ZM226.988 32.1844H231.261V31.7252H226.988V32.1844ZM231.041 31.8917C230.498 33.7923 229.483 35.301 227.996 36.4273L228.273 36.7933C229.844 35.6035 230.913 34.0085 231.482 32.0179L231.041 31.8917ZM227.998 36.426C226.516 37.5262 224.667 38.0831 222.437 38.0831V38.5423C224.746 38.5423 226.696 37.9643 228.271 36.7946L227.998 36.426ZM222.437 38.0831C220.642 38.0831 219.061 37.6859 217.687 36.8976L217.459 37.2958C218.91 38.1288 220.572 38.5423 222.437 38.5423V38.0831ZM217.69 36.899C216.313 36.0868 215.23 34.9595 214.439 33.5123L214.036 33.7326C214.866 35.2501 216.007 36.4389 217.456 37.2944L217.69 36.899ZM214.441 33.516C213.673 32.0482 213.286 30.3487 213.286 28.4111H212.827C212.827 30.411 213.227 32.1856 214.034 33.7289L214.441 33.516ZM238.092 37.5136L237.994 37.7214L237.999 37.7236L238.092 37.5136ZM235.278 35.2901L235.093 35.4257L235.094 35.4278L235.278 35.2901ZM234.166 32.1285V31.8989H233.927L233.937 32.1377L234.166 32.1285ZM238.266 32.1285L238.495 32.1089L238.477 31.8989H238.266V32.1285ZM239.412 34.1783L239.269 34.3577L239.275 34.3627L239.412 34.1783ZM244.658 34.352L244.789 34.5408L244.791 34.5398L244.658 34.352ZM244.554 31.0862L244.449 31.2902L244.451 31.2916L244.554 31.0862ZM241.323 29.9397L241.385 29.7187L241.384 29.7183L241.323 29.9397ZM237.814 28.7932L237.727 29.0057L237.814 28.7932ZM235.452 27.0909L235.277 27.2394L235.279 27.2424L235.452 27.0909ZM235.382 21.2889L235.568 21.4233L235.57 21.4209L235.382 21.2889ZM237.953 19.2738L237.863 19.0628L237.861 19.0634L237.953 19.2738ZM247.09 20.2118L246.942 20.3875L246.946 20.3902L247.09 20.2118ZM249.244 24.6936V24.9232H249.485L249.474 24.6824L249.244 24.6936ZM245.284 24.6936L245.055 24.7122L245.072 24.9232H245.284V24.6936ZM244.241 22.6438L244.387 22.4658L244.241 22.6438ZM239.308 22.4701L239.175 22.2827L239.308 22.4701ZM239.03 25.319L238.873 25.4865L239.03 25.319ZM240.385 26.1528L240.301 26.3668L240.31 26.3697L240.385 26.1528ZM242.748 26.8824L242.684 27.103L242.688 27.1042L242.748 26.8824ZM246.152 28.0289L246.059 28.2386L246.065 28.2413L246.152 28.0289ZM248.48 29.6965L248.307 29.8477L248.48 29.6965ZM249.488 32.6497H249.717L249.717 32.6453L249.488 32.6497ZM248.584 35.568L248.396 35.436L248.584 35.568ZM246.013 37.5831L245.921 37.3727L245.92 37.3735L246.013 37.5831ZM242.157 38.0831C240.679 38.0831 239.356 37.8217 238.185 37.3036L237.999 37.7236C239.237 38.271 240.624 38.5423 242.157 38.5423V38.0831ZM238.19 37.3059C237.038 36.7639 236.131 36.0452 235.462 35.1523L235.094 35.4278C235.814 36.3879 236.783 37.1516 237.994 37.7213L238.19 37.3059ZM235.463 35.1545C234.795 34.2411 234.44 33.2311 234.396 32.1193L233.937 32.1377C233.985 33.3421 234.371 34.4398 235.093 35.4257L235.463 35.1545ZM234.166 32.3581H238.266V31.8989H234.166V32.3581ZM238.037 32.1481C238.112 33.0277 238.53 33.7665 239.269 34.3576L239.556 33.999C238.905 33.4784 238.558 32.8507 238.495 32.1089L238.037 32.1481ZM239.275 34.3627C240.04 34.9301 240.982 35.207 242.087 35.207V34.7478C241.062 34.7478 240.22 34.492 239.549 33.9939L239.275 34.3627ZM242.087 35.207C243.223 35.207 244.133 34.9948 244.789 34.5408L244.528 34.1633C243.979 34.5431 243.175 34.7478 242.087 34.7478V35.207ZM244.791 34.5398C245.467 34.0636 245.826 33.442 245.826 32.6844H245.367C245.367 33.2702 245.1 33.7603 244.526 34.1643L244.791 34.5398ZM245.826 32.6844C245.826 32.2868 245.729 31.9293 245.528 31.6209C245.328 31.3136 245.033 31.0688 244.657 30.8809L244.451 31.2916C244.771 31.4511 244.997 31.6464 245.144 31.8718C245.29 32.0962 245.367 32.364 245.367 32.6844H245.826ZM244.66 30.8823C243.966 30.5237 242.871 30.1365 241.385 29.7187L241.261 30.1608C242.74 30.5768 243.799 30.954 244.449 31.2902L244.66 30.8823ZM241.384 29.7183C239.953 29.3259 238.793 28.9466 237.901 28.5808L237.727 29.0057C238.642 29.3811 239.822 29.7661 241.262 30.1612L241.384 29.7183ZM237.901 28.5808C237.032 28.2242 236.273 27.6782 235.624 26.9393L235.279 27.2424C235.973 28.0322 236.79 28.6211 237.727 29.0057L237.901 28.5808ZM235.627 26.9423C235.021 26.229 234.708 25.2785 234.708 24.0683H234.249C234.249 25.3595 234.585 26.4241 235.277 27.2394L235.627 26.9423ZM234.708 24.0683C234.708 23.0979 234.994 22.2184 235.568 21.4233L235.196 21.1544C234.566 22.027 234.249 23.0004 234.249 24.0683H234.708ZM235.57 21.4209C236.144 20.6034 236.966 19.9564 238.045 19.4841L237.861 19.0634C236.717 19.564 235.824 20.2603 235.194 21.1569L235.57 21.4209ZM238.044 19.4848C239.145 19.0127 240.411 18.7738 241.844 18.7738V18.3146C240.36 18.3146 239.031 18.5621 237.863 19.0628L238.044 19.4848ZM241.844 18.7738C243.982 18.7738 245.674 19.3189 246.942 20.3875L247.238 20.0362C245.867 18.8813 244.061 18.3146 241.844 18.3146V18.7738ZM246.946 20.3902C248.233 21.4333 248.925 22.8635 249.015 24.7048L249.474 24.6824C249.378 22.7252 248.634 21.1676 247.235 20.0335L246.946 20.3902ZM249.244 24.464H245.284V24.9232H249.244V24.464ZM245.513 24.6751C245.438 23.7603 245.064 23.0177 244.387 22.4658L244.096 22.8218C244.67 23.289 244.99 23.913 245.055 24.7122L245.513 24.6751ZM244.387 22.4658C243.709 21.9135 242.806 21.6499 241.705 21.6499V22.1091C242.735 22.1091 243.524 22.355 244.096 22.8218L244.387 22.4658ZM241.705 21.6499C240.639 21.6499 239.786 21.8505 239.175 22.2827L239.441 22.6575C239.942 22.3023 240.687 22.1091 241.705 22.1091V21.6499ZM239.175 22.2827C238.562 22.717 238.245 23.3062 238.245 24.0335H238.704C238.704 23.4638 238.942 23.0107 239.441 22.6575L239.175 22.2827ZM238.245 24.0335C238.245 24.6063 238.456 25.0955 238.873 25.4865L239.187 25.1515C238.863 24.8476 238.704 24.4798 238.704 24.0335H238.245ZM238.873 25.4865C239.267 25.8562 239.745 26.1489 240.301 26.3666L240.469 25.939C239.96 25.7398 239.534 25.4766 239.187 25.1515L238.873 25.4865ZM240.31 26.3697C240.848 26.557 241.641 26.8016 242.684 27.103L242.811 26.6618C241.77 26.361 240.987 26.1192 240.46 25.936L240.31 26.3697ZM242.688 27.1042C244.071 27.473 245.194 27.8515 246.059 28.2385L246.246 27.8193C245.351 27.4188 244.203 27.0329 242.807 26.6606L242.688 27.1042ZM246.065 28.2413C246.935 28.5983 247.682 29.1331 248.307 29.8477L248.653 29.5454C247.981 28.7777 247.176 28.2007 246.239 27.8165L246.065 28.2413ZM248.307 29.8477C248.912 30.5389 249.236 31.4668 249.258 32.654L249.717 32.6453C249.693 31.3774 249.345 30.3365 248.653 29.5454L248.307 29.8477ZM249.258 32.6497C249.258 33.693 248.97 34.6193 248.396 35.436L248.772 35.7C249.403 34.8028 249.717 33.7835 249.717 32.6497H249.258ZM248.396 35.436C247.822 36.2535 247.001 36.9005 245.921 37.3727L246.105 37.7934C247.249 37.2929 248.142 36.5966 248.772 35.7L248.396 35.436ZM245.92 37.3735C244.867 37.8439 243.615 38.0831 242.157 38.0831V38.5423C243.664 38.5423 244.983 38.2951 246.107 37.7927L245.92 37.3735Z" fill="black" mask="url(#path-88-outside-6_65_1218)"/>
<defs>
<linearGradient id="paint0_linear_65_1218" x1="19.2423" y1="27.2133" x2="35.2616" y2="27.2133" gradientUnits="userSpaceOnUse">
<stop offset="0.005291" stop-color="#3B31BC"/>
<stop offset="0.1475" stop-color="#3C35BD"/>
<stop offset="0.2936" stop-color="#3F41C0"/>
<stop offset="0.4415" stop-color="#4356C6"/>
<stop offset="0.5907" stop-color="#4A73CD"/>
<stop offset="0.7408" stop-color="#5298D7"/>
<stop offset="0.8897" stop-color="#5CC5E2"/>
<stop offset="1" stop-color="#64EBEC"/>
</linearGradient>
<linearGradient id="paint1_linear_65_1218" x1="17.02" y1="28.8607" x2="1.00073" y2="28.8607" gradientUnits="userSpaceOnUse">
<stop offset="0.005291" stop-color="#3B31BC"/>
<stop offset="0.1475" stop-color="#3C35BD"/>
<stop offset="0.2936" stop-color="#3F41C0"/>
<stop offset="0.4415" stop-color="#4356C6"/>
<stop offset="0.5907" stop-color="#4A73CD"/>
<stop offset="0.7408" stop-color="#5298D7"/>
<stop offset="0.8897" stop-color="#5CC5E2"/>
<stop offset="1" stop-color="#64EBEC"/>
</linearGradient>
<linearGradient id="paint2_linear_65_1218" x1="18.9548" y1="29.1482" x2="18.9548" y2="45.1676" gradientUnits="userSpaceOnUse">
<stop offset="0.005291" stop-color="#F44B3C"/>
<stop offset="0.158" stop-color="#F44F3A"/>
<stop offset="0.3147" stop-color="#F55B36"/>
<stop offset="0.4733" stop-color="#F6702E"/>
<stop offset="0.6334" stop-color="#F78D24"/>
<stop offset="0.7945" stop-color="#F9B216"/>
<stop offset="0.9543" stop-color="#FBDF05"/>
<stop offset="1" stop-color="#FCED00"/>
</linearGradient>
<linearGradient id="paint3_linear_65_1218" x1="17.3074" y1="26.9259" x2="17.3074" y2="10.9066" gradientUnits="userSpaceOnUse">
<stop offset="0.005291" stop-color="#F44B3C"/>
<stop offset="0.158" stop-color="#F44F3A"/>
<stop offset="0.3147" stop-color="#F55B36"/>
<stop offset="0.4733" stop-color="#F6702E"/>
<stop offset="0.6334" stop-color="#F78D24"/>
<stop offset="0.7945" stop-color="#F9B216"/>
<stop offset="0.9543" stop-color="#FBDF05"/>
<stop offset="1" stop-color="#FCED00"/>
</linearGradient>
<linearGradient id="paint4_linear_65_1218" x1="19.4992" y1="28.2407" x2="30.8266" y2="39.568" gradientUnits="userSpaceOnUse">
<stop stop-color="#C8459A"/>
<stop offset="0.5" stop-color="#DD486E"/>
<stop offset="1" stop-color="#F44B3C"/>
</linearGradient>
<linearGradient id="paint5_linear_65_1218" x1="16.763" y1="27.8338" x2="5.43568" y2="16.5064" gradientUnits="userSpaceOnUse">
<stop stop-color="#C8459A"/>
<stop offset="0.48" stop-color="#DD486E"/>
<stop offset="1" stop-color="#F44B3C"/>
</linearGradient>
<linearGradient id="paint6_linear_65_1218" x1="13.9606" y1="22.0754" x2="10.5615" y2="45.8691" gradientUnits="userSpaceOnUse">
<stop stop-color="#9FE199"/>
<stop offset="0.1553" stop-color="#62CA59"/>
<stop offset="0.5513" stop-color="#38A82E"/>
<stop offset="0.8443" stop-color="#228A19"/>
<stop offset="1" stop-color="#167E0D"/>
</linearGradient>
<linearGradient id="paint7_linear_65_1218" x1="22.3017" y1="33.9986" x2="25.7008" y2="10.205" gradientUnits="userSpaceOnUse">
<stop stop-color="#CCEEC9"/>
<stop offset="0.25" stop-color="#8ADB83"/>
<stop offset="0.5" stop-color="#45BD3A"/>
<stop offset="0.74" stop-color="#2D9624"/>
<stop offset="1" stop-color="#0C7303"/>
</linearGradient>
<linearGradient id="paint8_linear_65_1218" x1="-357.326" y1="57.4484" x2="231.548" y2="57.4484" gradientUnits="userSpaceOnUse">
<stop stop-color="#B71A9D"/>
<stop offset="0.3683" stop-color="#7157BA"/>
<stop offset="0.5094" stop-color="#408CC0"/>
<stop offset="0.683" stop-color="#00D2C7"/>
<stop offset="1" stop-color="#005B8B"/>
</linearGradient>
<linearGradient id="paint9_linear_65_1218" x1="43.7386" y1="57.4507" x2="113.711" y2="57.4507" gradientUnits="userSpaceOnUse">
<stop stop-color="#B71A9D"/>
<stop offset="0.3683" stop-color="#7157BA"/>
<stop offset="0.5094" stop-color="#408CC0"/>
<stop offset="0.683" stop-color="#00D2C7"/>
<stop offset="1" stop-color="#005B8B"/>
</linearGradient>
<linearGradient id="paint10_linear_65_1218" x1="50.0906" y1="58.144" x2="107.623" y2="58.144" gradientUnits="userSpaceOnUse">
<stop stop-color="#B71A9D"/>
<stop offset="0.3683" stop-color="#7157BA"/>
<stop offset="0.5094" stop-color="#408CC0"/>
<stop offset="0.683" stop-color="#00D2C7"/>
<stop offset="1" stop-color="#005B8B"/>
</linearGradient>
<linearGradient id="paint11_linear_65_1218" x1="50.0905" y1="57.5285" x2="107.623" y2="57.5285" gradientUnits="userSpaceOnUse">
<stop stop-color="#B71A9D"/>
<stop offset="0.3683" stop-color="#7157BA"/>
<stop offset="0.5094" stop-color="#408CC0"/>
<stop offset="0.683" stop-color="#00D2C7"/>
<stop offset="1" stop-color="#005B8B"/>
</linearGradient>
<linearGradient id="paint12_linear_65_1218" x1="50.0905" y1="57.2058" x2="107.623" y2="57.2058" gradientUnits="userSpaceOnUse">
<stop stop-color="#B71A9D"/>
<stop offset="0.3683" stop-color="#7157BA"/>
<stop offset="0.5094" stop-color="#408CC0"/>
<stop offset="0.683" stop-color="#00D2C7"/>
<stop offset="1" stop-color="#005B8B"/>
</linearGradient>
<linearGradient id="paint13_linear_65_1218" x1="50.0904" y1="55.7519" x2="107.623" y2="55.7519" gradientUnits="userSpaceOnUse">
<stop stop-color="#B71A9D"/>
<stop offset="0.3683" stop-color="#7157BA"/>
<stop offset="0.5094" stop-color="#408CC0"/>
<stop offset="0.683" stop-color="#00D2C7"/>
<stop offset="1" stop-color="#005B8B"/>
</linearGradient>
<linearGradient id="paint14_linear_65_1218" x1="50.0904" y1="53.3716" x2="107.623" y2="53.3716" gradientUnits="userSpaceOnUse">
<stop stop-color="#B71A9D"/>
<stop offset="0.3683" stop-color="#7157BA"/>
<stop offset="0.5094" stop-color="#408CC0"/>
<stop offset="0.683" stop-color="#00D2C7"/>
<stop offset="1" stop-color="#005B8B"/>
</linearGradient>
<linearGradient id="paint15_linear_65_1218" x1="50.0904" y1="59.7835" x2="107.623" y2="59.7835" gradientUnits="userSpaceOnUse">
<stop stop-color="#B71A9D"/>
<stop offset="0.3683" stop-color="#7157BA"/>
<stop offset="0.5094" stop-color="#408CC0"/>
<stop offset="0.683" stop-color="#00D2C7"/>
<stop offset="1" stop-color="#005B8B"/>
</linearGradient>
<linearGradient id="paint16_linear_65_1218" x1="50.0904" y1="57.5286" x2="107.623" y2="57.5286" gradientUnits="userSpaceOnUse">
<stop stop-color="#B71A9D"/>
<stop offset="0.3683" stop-color="#7157BA"/>
<stop offset="0.5094" stop-color="#408CC0"/>
<stop offset="0.683" stop-color="#00D2C7"/>
<stop offset="1" stop-color="#005B8B"/>
</linearGradient>
<linearGradient id="paint17_linear_65_1218" x1="50.0905" y1="54.7413" x2="107.623" y2="54.7413" gradientUnits="userSpaceOnUse">
<stop stop-color="#B71A9D"/>
<stop offset="0.3683" stop-color="#7157BA"/>
<stop offset="0.5094" stop-color="#408CC0"/>
<stop offset="0.683" stop-color="#00D2C7"/>
<stop offset="1" stop-color="#005B8B"/>
</linearGradient>
<linearGradient id="paint18_linear_65_1218" x1="50.0905" y1="59.3827" x2="107.623" y2="59.3827" gradientUnits="userSpaceOnUse">
<stop stop-color="#B71A9D"/>
<stop offset="0.3683" stop-color="#7157BA"/>
<stop offset="0.5094" stop-color="#408CC0"/>
<stop offset="0.683" stop-color="#00D2C7"/>
<stop offset="1" stop-color="#005B8B"/>
</linearGradient>
<linearGradient id="paint19_linear_65_1218" x1="50.0908" y1="57.5881" x2="107.623" y2="57.5881" gradientUnits="userSpaceOnUse">
<stop stop-color="#B71A9D"/>
<stop offset="0.3683" stop-color="#7157BA"/>
<stop offset="0.5094" stop-color="#408CC0"/>
<stop offset="0.683" stop-color="#00D2C7"/>
<stop offset="1" stop-color="#005B8B"/>
</linearGradient>
<linearGradient id="paint20_linear_65_1218" x1="50.0908" y1="55.5543" x2="107.623" y2="55.5543" gradientUnits="userSpaceOnUse">
<stop stop-color="#B71A9D"/>
<stop offset="0.3683" stop-color="#7157BA"/>
<stop offset="0.5094" stop-color="#408CC0"/>
<stop offset="0.683" stop-color="#00D2C7"/>
<stop offset="1" stop-color="#005B8B"/>
</linearGradient>
<linearGradient id="paint21_linear_65_1218" x1="50.0905" y1="56.7184" x2="107.623" y2="56.7184" gradientUnits="userSpaceOnUse">
<stop stop-color="#B71A9D"/>
<stop offset="0.3683" stop-color="#7157BA"/>
<stop offset="0.5094" stop-color="#408CC0"/>
<stop offset="0.683" stop-color="#00D2C7"/>
<stop offset="1" stop-color="#005B8B"/>
</linearGradient>
<linearGradient id="paint22_linear_65_1218" x1="50.0905" y1="62.6791" x2="107.623" y2="62.6791" gradientUnits="userSpaceOnUse">
<stop stop-color="#B71A9D"/>
<stop offset="0.3683" stop-color="#7157BA"/>
<stop offset="0.5094" stop-color="#408CC0"/>
<stop offset="0.683" stop-color="#00D2C7"/>
<stop offset="1" stop-color="#005B8B"/>
</linearGradient>
<linearGradient id="paint23_linear_65_1218" x1="50.0906" y1="57.5285" x2="107.623" y2="57.5285" gradientUnits="userSpaceOnUse">
<stop stop-color="#B71A9D"/>
<stop offset="0.3683" stop-color="#7157BA"/>
<stop offset="0.5094" stop-color="#408CC0"/>
<stop offset="0.683" stop-color="#00D2C7"/>
<stop offset="1" stop-color="#005B8B"/>
</linearGradient>
<linearGradient id="paint24_linear_65_1218" x1="50.0905" y1="56.3015" x2="107.623" y2="56.3015" gradientUnits="userSpaceOnUse">
<stop stop-color="#B71A9D"/>
<stop offset="0.3683" stop-color="#7157BA"/>
<stop offset="0.5094" stop-color="#408CC0"/>
<stop offset="0.683" stop-color="#00D2C7"/>
<stop offset="1" stop-color="#005B8B"/>
</linearGradient>
<linearGradient id="paint25_linear_65_1218" x1="50.0905" y1="60.211" x2="107.623" y2="60.211" gradientUnits="userSpaceOnUse">
<stop stop-color="#B71A9D"/>
<stop offset="0.3683" stop-color="#7157BA"/>
<stop offset="0.5094" stop-color="#408CC0"/>
<stop offset="0.683" stop-color="#00D2C7"/>
<stop offset="1" stop-color="#005B8B"/>
</linearGradient>
<linearGradient id="paint26_linear_65_1218" x1="50.0905" y1="58.8746" x2="107.623" y2="58.8746" gradientUnits="userSpaceOnUse">
<stop stop-color="#B71A9D"/>
<stop offset="0.3683" stop-color="#7157BA"/>
<stop offset="0.5094" stop-color="#408CC0"/>
<stop offset="0.683" stop-color="#00D2C7"/>
<stop offset="1" stop-color="#005B8B"/>
</linearGradient>
<linearGradient id="paint27_linear_65_1218" x1="50.0905" y1="54.1981" x2="107.623" y2="54.1981" gradientUnits="userSpaceOnUse">
<stop stop-color="#B71A9D"/>
<stop offset="0.3683" stop-color="#7157BA"/>
<stop offset="0.5094" stop-color="#408CC0"/>
<stop offset="0.683" stop-color="#00D2C7"/>
<stop offset="1" stop-color="#005B8B"/>
</linearGradient>
<linearGradient id="paint28_linear_65_1218" x1="50.0905" y1="52.7323" x2="107.623" y2="52.7323" gradientUnits="userSpaceOnUse">
<stop stop-color="#B71A9D"/>
<stop offset="0.3683" stop-color="#7157BA"/>
<stop offset="0.5094" stop-color="#408CC0"/>
<stop offset="0.683" stop-color="#00D2C7"/>
<stop offset="1" stop-color="#005B8B"/>
</linearGradient>
<linearGradient id="paint29_linear_65_1218" x1="50.0907" y1="57.5286" x2="107.623" y2="57.5286" gradientUnits="userSpaceOnUse">
<stop stop-color="#B71A9D"/>
<stop offset="0.3683" stop-color="#7157BA"/>
<stop offset="0.5094" stop-color="#408CC0"/>
<stop offset="0.683" stop-color="#00D2C7"/>
<stop offset="1" stop-color="#005B8B"/>
</linearGradient>
<linearGradient id="paint30_linear_65_1218" x1="50.0906" y1="57.5285" x2="107.623" y2="57.5285" gradientUnits="userSpaceOnUse">
<stop stop-color="#B71A9D"/>
<stop offset="0.3683" stop-color="#7157BA"/>
<stop offset="0.5094" stop-color="#408CC0"/>
<stop offset="0.683" stop-color="#00D2C7"/>
<stop offset="1" stop-color="#005B8B"/>
</linearGradient>
<linearGradient id="paint31_linear_65_1218" x1="50.0906" y1="57.5286" x2="107.623" y2="57.5286" gradientUnits="userSpaceOnUse">
<stop stop-color="#B71A9D"/>
<stop offset="0.3683" stop-color="#7157BA"/>
<stop offset="0.5094" stop-color="#408CC0"/>
<stop offset="0.683" stop-color="#00D2C7"/>
<stop offset="1" stop-color="#005B8B"/>
</linearGradient>
<linearGradient id="paint32_linear_65_1218" x1="50.0906" y1="57.2059" x2="107.623" y2="57.2059" gradientUnits="userSpaceOnUse">
<stop stop-color="#B71A9D"/>
<stop offset="0.3683" stop-color="#7157BA"/>
<stop offset="0.5094" stop-color="#408CC0"/>
<stop offset="0.683" stop-color="#00D2C7"/>
<stop offset="1" stop-color="#005B8B"/>
</linearGradient>
<linearGradient id="paint33_linear_65_1218" x1="50.0904" y1="57.1368" x2="107.623" y2="57.1368" gradientUnits="userSpaceOnUse">
<stop stop-color="#B71A9D"/>
<stop offset="0.3683" stop-color="#7157BA"/>
<stop offset="0.5094" stop-color="#408CC0"/>
<stop offset="0.683" stop-color="#00D2C7"/>
<stop offset="1" stop-color="#005B8B"/>
</linearGradient>
<linearGradient id="paint34_linear_65_1218" x1="50.0906" y1="56.1625" x2="107.623" y2="56.1625" gradientUnits="userSpaceOnUse">
<stop stop-color="#B71A9D"/>
<stop offset="0.3683" stop-color="#7157BA"/>
<stop offset="0.5094" stop-color="#408CC0"/>
<stop offset="0.683" stop-color="#00D2C7"/>
<stop offset="1" stop-color="#005B8B"/>
</linearGradient>
<linearGradient id="paint35_linear_65_1218" x1="50.0906" y1="59.3342" x2="107.623" y2="59.3342" gradientUnits="userSpaceOnUse">
<stop stop-color="#B71A9D"/>
<stop offset="0.3683" stop-color="#7157BA"/>
<stop offset="0.5094" stop-color="#408CC0"/>
<stop offset="0.683" stop-color="#00D2C7"/>
<stop offset="1" stop-color="#005B8B"/>
</linearGradient>
<linearGradient id="paint36_linear_65_1218" x1="50.0904" y1="57.6124" x2="107.623" y2="57.6124" gradientUnits="userSpaceOnUse">
<stop stop-color="#B71A9D"/>
<stop offset="0.3683" stop-color="#7157BA"/>
<stop offset="0.5094" stop-color="#408CC0"/>
<stop offset="0.683" stop-color="#00D2C7"/>
<stop offset="1" stop-color="#005B8B"/>
</linearGradient>
<linearGradient id="paint37_linear_65_1218" x1="50.0904" y1="59.1959" x2="107.623" y2="59.1959" gradientUnits="userSpaceOnUse">
<stop stop-color="#B71A9D"/>
<stop offset="0.3683" stop-color="#7157BA"/>
<stop offset="0.5094" stop-color="#408CC0"/>
<stop offset="0.683" stop-color="#00D2C7"/>
<stop offset="1" stop-color="#005B8B"/>
</linearGradient>
<linearGradient id="paint38_linear_65_1218" x1="50.0904" y1="56.6352" x2="107.623" y2="56.6352" gradientUnits="userSpaceOnUse">
<stop stop-color="#B71A9D"/>
<stop offset="0.3683" stop-color="#7157BA"/>
<stop offset="0.5094" stop-color="#408CC0"/>
<stop offset="0.683" stop-color="#00D2C7"/>
<stop offset="1" stop-color="#005B8B"/>
</linearGradient>
<linearGradient id="paint39_linear_65_1218" x1="50.0904" y1="59.8503" x2="107.623" y2="59.8503" gradientUnits="userSpaceOnUse">
<stop stop-color="#B71A9D"/>
<stop offset="0.3683" stop-color="#7157BA"/>
<stop offset="0.5094" stop-color="#408CC0"/>
<stop offset="0.683" stop-color="#00D2C7"/>
<stop offset="1" stop-color="#005B8B"/>
</linearGradient>
<linearGradient id="paint40_linear_65_1218" x1="50.0907" y1="56.1056" x2="107.623" y2="56.1056" gradientUnits="userSpaceOnUse">
<stop stop-color="#B71A9D"/>
<stop offset="0.3683" stop-color="#7157BA"/>
<stop offset="0.5094" stop-color="#408CC0"/>
<stop offset="0.683" stop-color="#00D2C7"/>
<stop offset="1" stop-color="#005B8B"/>
</linearGradient>
<linearGradient id="paint41_linear_65_1218" x1="50.0904" y1="60.038" x2="107.623" y2="60.038" gradientUnits="userSpaceOnUse">
<stop stop-color="#B71A9D"/>
<stop offset="0.3683" stop-color="#7157BA"/>
<stop offset="0.5094" stop-color="#408CC0"/>
<stop offset="0.683" stop-color="#00D2C7"/>
<stop offset="1" stop-color="#005B8B"/>
</linearGradient>
<linearGradient id="paint42_linear_65_1218" x1="50.0904" y1="59.1961" x2="107.623" y2="59.1961" gradientUnits="userSpaceOnUse">
<stop stop-color="#B71A9D"/>
<stop offset="0.3683" stop-color="#7157BA"/>
<stop offset="0.5094" stop-color="#408CC0"/>
<stop offset="0.683" stop-color="#00D2C7"/>
<stop offset="1" stop-color="#005B8B"/>
</linearGradient>
<linearGradient id="paint43_linear_65_1218" x1="50.091" y1="58.8662" x2="107.623" y2="58.8662" gradientUnits="userSpaceOnUse">
<stop stop-color="#B71A9D"/>
<stop offset="0.3683" stop-color="#7157BA"/>
<stop offset="0.5094" stop-color="#408CC0"/>
<stop offset="0.683" stop-color="#00D2C7"/>
<stop offset="1" stop-color="#005B8B"/>
</linearGradient>
<linearGradient id="paint44_linear_65_1218" x1="50.0904" y1="57.905" x2="107.623" y2="57.905" gradientUnits="userSpaceOnUse">
<stop stop-color="#B71A9D"/>
<stop offset="0.3683" stop-color="#7157BA"/>
<stop offset="0.5094" stop-color="#408CC0"/>
<stop offset="0.683" stop-color="#00D2C7"/>
<stop offset="1" stop-color="#005B8B"/>
</linearGradient>
<linearGradient id="paint45_linear_65_1218" x1="50.0904" y1="61.0655" x2="107.623" y2="61.0655" gradientUnits="userSpaceOnUse">
<stop stop-color="#B71A9D"/>
<stop offset="0.3683" stop-color="#7157BA"/>
<stop offset="0.5094" stop-color="#408CC0"/>
<stop offset="0.683" stop-color="#00D2C7"/>
<stop offset="1" stop-color="#005B8B"/>
</linearGradient>
<linearGradient id="paint46_linear_65_1218" x1="50.0908" y1="57.5285" x2="107.623" y2="57.5285" gradientUnits="userSpaceOnUse">
<stop stop-color="#B71A9D"/>
<stop offset="0.3683" stop-color="#7157BA"/>
<stop offset="0.5094" stop-color="#408CC0"/>
<stop offset="0.683" stop-color="#00D2C7"/>
<stop offset="1" stop-color="#005B8B"/>
</linearGradient>
<linearGradient id="paint47_linear_65_1218" x1="50.0908" y1="57.5284" x2="107.623" y2="57.5284" gradientUnits="userSpaceOnUse">
<stop stop-color="#B71A9D"/>
<stop offset="0.3683" stop-color="#7157BA"/>
<stop offset="0.5094" stop-color="#408CC0"/>
<stop offset="0.683" stop-color="#00D2C7"/>
<stop offset="1" stop-color="#005B8B"/>
</linearGradient>
<linearGradient id="paint48_linear_65_1218" x1="50.0904" y1="59.1959" x2="107.623" y2="59.1959" gradientUnits="userSpaceOnUse">
<stop stop-color="#B71A9D"/>
<stop offset="0.3683" stop-color="#7157BA"/>
<stop offset="0.5094" stop-color="#408CC0"/>
<stop offset="0.683" stop-color="#00D2C7"/>
<stop offset="1" stop-color="#005B8B"/>
</linearGradient>
<linearGradient id="paint49_linear_65_1218" x1="50.091" y1="59.196" x2="107.623" y2="59.196" gradientUnits="userSpaceOnUse">
<stop stop-color="#B71A9D"/>
<stop offset="0.3683" stop-color="#7157BA"/>
<stop offset="0.5094" stop-color="#408CC0"/>
<stop offset="0.683" stop-color="#00D2C7"/>
<stop offset="1" stop-color="#005B8B"/>
</linearGradient>
<linearGradient id="paint50_linear_65_1218" x1="50.0904" y1="57.137" x2="107.623" y2="57.137" gradientUnits="userSpaceOnUse">
<stop stop-color="#B71A9D"/>
<stop offset="0.3683" stop-color="#7157BA"/>
<stop offset="0.5094" stop-color="#408CC0"/>
<stop offset="0.683" stop-color="#00D2C7"/>
<stop offset="1" stop-color="#005B8B"/>
</linearGradient>
<linearGradient id="paint51_linear_65_1218" x1="50.0908" y1="56.7409" x2="107.623" y2="56.7409" gradientUnits="userSpaceOnUse">
<stop stop-color="#B71A9D"/>
<stop offset="0.3683" stop-color="#7157BA"/>
<stop offset="0.5094" stop-color="#408CC0"/>
<stop offset="0.683" stop-color="#00D2C7"/>
<stop offset="1" stop-color="#005B8B"/>
</linearGradient>
<linearGradient id="paint52_linear_65_1218" x1="50.0904" y1="58.3266" x2="107.623" y2="58.3266" gradientUnits="userSpaceOnUse">
<stop stop-color="#B71A9D"/>
<stop offset="0.3683" stop-color="#7157BA"/>
<stop offset="0.5094" stop-color="#408CC0"/>
<stop offset="0.683" stop-color="#00D2C7"/>
<stop offset="1" stop-color="#005B8B"/>
</linearGradient>
<linearGradient id="paint53_linear_65_1218" x1="79.7124" y1="30.2857" x2="42.3374" y2="30.2857" gradientUnits="userSpaceOnUse">
<stop stop-color="#A3BEFE"/>
<stop offset="1" stop-color="#3364D7"/>
</linearGradient>
<linearGradient id="paint54_linear_65_1218" x1="93.3823" y1="26.2857" x2="244.831" y2="26.2857" gradientUnits="userSpaceOnUse">
<stop stop-color="#3364D8"/>
<stop offset="1" stop-color="#A5BFFF"/>
</linearGradient>
</defs>
</svg>
